<?xml version="1.0" encoding="utf-8"?>
<svg width="801px" height="784px" viewBox="0 0 801 784" version="1.1" xmlns:xlink="http://www.w3.org/1999/xlink" xmlns="http://www.w3.org/2000/svg">
  <desc>Created with Lunacy</desc>
  <defs>
    <linearGradient x1="0.499975681" y1="0.119395256" x2="0.499975681" y2="1.41015148" id="gradient_1">
      <stop offset="0" stop-color="#9774AC" />
      <stop offset="0.4" stop-color="#47A6D3" />
      <stop offset="0.5" stop-color="#A7A7AE" />
      <stop offset="0.59" stop-color="#E89AC0" />
      <stop offset="1" stop-color="#BFE7D1" />
    </linearGradient>
    <linearGradient x1="0.4972973" y1="1.68368721" x2="0.4972973" y2="-0.8013096" id="gradient_2">
      <stop offset="0" stop-color="#6B9C83" />
      <stop offset="0.4" stop-color="#A6A6A4" />
      <stop offset="0.5" stop-color="#9F9FC8" />
      <stop offset="0.59" stop-color="#9FCCEC" />
      <stop offset="1" stop-color="#FFE7B0" />
    </linearGradient>
    <linearGradient x1="0.499856949" y1="0.119395256" x2="0.499856949" y2="1.41015148" id="gradient_3">
      <stop offset="0" stop-color="#9774AC" />
      <stop offset="0.4" stop-color="#47A6D3" />
      <stop offset="0.5" stop-color="#A7A7AE" />
      <stop offset="0.59" stop-color="#E89AC0" />
      <stop offset="1" stop-color="#BFE7D1" />
    </linearGradient>
    <linearGradient x1="0.5026581" y1="0.0252163112" x2="0.438982248" y2="6.81038" id="gradient_4">
      <stop offset="0" stop-color="#9774AC" />
      <stop offset="0.4" stop-color="#47A6D3" />
      <stop offset="0.5" stop-color="#A7A7AE" />
      <stop offset="0.59" stop-color="#E89AC0" />
      <stop offset="1" stop-color="#BFE7D1" />
    </linearGradient>
    <linearGradient x1="0.4996357" y1="0.8070717" x2="0.4996357" y2="0.131011963" id="gradient_5">
      <stop offset="0" stop-color="#6B9C83" />
      <stop offset="0.4" stop-color="#A6A6A4" />
      <stop offset="0.5" stop-color="#9F9FC8" />
      <stop offset="0.59" stop-color="#9FCCEC" />
      <stop offset="1" stop-color="#FFE7B0" />
    </linearGradient>
    <linearGradient x1="0.4908874" y1="1.08752751" x2="0.502388239" y2="0.2442972" id="gradient_6">
      <stop offset="0" stop-color="#6B9C83" />
      <stop offset="0.4" stop-color="#A6A6A4" />
      <stop offset="0.5" stop-color="#9F9FC8" />
      <stop offset="0.59" stop-color="#9FCCEC" />
      <stop offset="1" stop-color="#FFE7B0" />
    </linearGradient>
    <linearGradient x1="0.500268936" y1="0.179075241" x2="0.500268936" y2="0.9668503" id="gradient_7">
      <stop offset="0" stop-color="#C0DDFC" />
      <stop offset="0.19" stop-color="#D3E7FD" />
      <stop offset="0.49" stop-color="#EBF4FE" />
      <stop offset="0.77" stop-color="#FAFCFF" />
      <stop offset="1" stop-color="#FFFFFF" />
    </linearGradient>
    <linearGradient x1="0.5004196" y1="0.179840088" x2="0.5004196" y2="0.966968536" id="gradient_8">
      <stop offset="0" stop-color="#FFD8A1" />
      <stop offset="1" stop-color="#FFFFFF" />
    </linearGradient>
    <rect width="800" height="784" id="artboard_1" />
    <clipPath id="clip_1">
      <use xlink:href="#artboard_1" clip-rule="evenodd" />
    </clipPath>
  </defs>
  <g id="Custom-size" clip-path="url(#clip_1)">
    <use xlink:href="#artboard_1" stroke="none" fill="#FFFFFF" fill-opacity="0" />
    <g id="marginalia-programming" transform="translate(-486.9999 0)">
      <g id="Group">
        <path d="M0 0L974.536 0L974.536 952L0 952L0 0Z" id="Rectangle" fill="none" stroke="none" />
        <g id="Group" transform="translate(66.75571 68.46115)" opacity="0.3">
          <path d="M0 0L841.025 0L841.025 714.457L0 714.457L0 0ZM838.345 711.655L838.345 2.67998L2.67999 2.68001L2.67999 711.655L838.345 711.655Z" id="Shape" fill="#C4ECFE" fill-rule="evenodd" stroke="none" />
          <g id="Group" transform="translate(0 506.3933)">
            <path d="M0 0L841.025 0L841.025 2.55817L0 2.55817L0 0Z" id="Rectangle" fill="#C4ECFE" stroke="none" />
          </g>
          <g id="Group" transform="translate(0 404.1889)">
            <path d="M0 0L841.025 0L841.025 2.55817L0 2.55817L0 0Z" id="Rectangle" fill="#C4ECFE" stroke="none" />
          </g>
          <g id="Group" transform="translate(0 506.3933)">
            <path d="M0 0L841.025 0L841.025 2.55817L0 2.55817L0 0Z" id="Rectangle" fill="#C4ECFE" stroke="none" />
          </g>
          <g id="Group" transform="translate(0 608.7196)">
            <path d="M0 0L841.025 0L841.025 2.55817L0 2.55817L0 0Z" id="Rectangle" fill="#C4ECFE" stroke="none" />
          </g>
          <g id="Group" transform="translate(0 301.8626)">
            <path d="M0 0L841.025 0L841.025 2.55817L0 2.55817L0 0Z" id="Rectangle" fill="#C4ECFE" stroke="none" />
          </g>
          <g id="Group" transform="translate(0 199.5363)">
            <path d="M0 0L841.025 0L841.025 2.55815L0 2.55815L0 0Z" id="Rectangle" fill="#C4ECFE" stroke="none" />
          </g>
          <g id="Group" transform="translate(0 97.20999)">
            <path d="M0 0L841.025 0L841.025 2.55816L0 2.55816L0 0Z" id="Rectangle" fill="#C4ECFE" stroke="none" />
          </g>
        </g>
        <path d="M0 3.65451C0 1.63618 1.63618 0 3.65451 0C5.67284 0 7.30902 1.63618 7.30902 3.65451C7.30902 5.67284 5.67284 7.30902 3.65451 7.30902C1.63618 7.30902 0 5.67284 0 3.65451Z" transform="translate(596.0507 723.5931)" id="Circle" fill="#BFD9FF" stroke="none" />
        <path d="M0 3.65451C0 1.63618 1.63618 0 3.65451 0C5.67284 0 7.30902 1.63618 7.30902 3.65451C7.30902 5.67284 5.67284 7.30902 3.65451 7.30902C1.63618 7.30902 0 5.67284 0 3.65451Z" transform="translate(786.4506 85.881)" id="Circle" fill="#BFD9FF" stroke="none" />
        <path d="M0 3.65451C0 1.63618 1.63618 0 3.65451 0C5.67284 0 7.30902 1.63618 7.30902 3.65451C7.30902 5.67284 5.67284 7.30902 3.65451 7.30902C1.63618 7.30902 0 5.67284 0 3.65451Z" transform="translate(832.0103 310.3897)" id="Circle" fill="#BFD9FF" stroke="none" />
        <path d="M0 0L662.076 0L662.076 11.9381L0 11.9381L0 0Z" transform="translate(156.1694 499.328)" id="Rectangle" fill="#2B2B2B" stroke="none" />
        <g id="Group" transform="translate(800.216 511.3878)">
          <path d="M0 0L17.6635 0L17.6635 269.947L0 269.947L0 0Z" id="Rectangle" fill="#F9D5FF" stroke="none" />
        </g>
        <g id="Group" transform="translate(706.7823 511.3878)">
          <path d="M0 0L17.6635 0L17.6635 269.947L0 269.947L0 0Z" id="Rectangle" fill="#F9D5FF" stroke="none" />
        </g>
        <g id="Group" transform="translate(706.7823 507.8552)">
          <path d="M0 0L17.6635 0L17.6635 25.338L0 25.338L0 0Z" id="Rectangle" fill="#2B2B2B" stroke="none" />
        </g>
        <g id="Group" transform="translate(800.216 507.8552)">
          <path d="M0 0L17.6635 0L17.6635 57.254L0 57.254L0 0Z" id="Rectangle" fill="#2B2B2B" stroke="none" />
        </g>
        <g id="Group" transform="translate(608.0218 123.6107)">
          <path d="M0 0L108.539 0.00162697L108.539 8.77081L5.34058e-05 8.76918L0 0Z" transform="matrix(0.1877 -0.9822 0.9822 0.1877 0 106.6068)" id="Rectangle" fill="#F9D5FF" stroke="none" />
        </g>
        <g id="Group" transform="translate(283.2245 215.3725)">
          <path d="M0 0L401.022 0L401.022 240.101L0 240.101L0 0Z" transform="translate(3.532646 3.532684)" id="Rectangle" fill="#2B2B2B" stroke="none" />
          <path d="M0 247.167L408.087 247.167L408.087 0L0 0L0 247.167ZM401.022 240.101L7.06537 240.101L7.06537 7.0654L401.022 7.0654L401.022 240.101Z" id="Shape" fill="#2B2B2B" fill-rule="evenodd" stroke="none" />
        </g>
        <g id="Group" transform="translate(314.6534 248.8721)">
          <path d="M0 0L182.847 0L182.847 8.77083L0 8.77083L0 0Z" id="Rectangle" fill="#5E41F4" stroke="none" />
        </g>
        <g id="Group" transform="translate(537.0912 248.8721)">
          <path d="M0 0L122.792 0L122.792 8.77083L0 8.77083L0 0Z" id="Rectangle" fill="#FFA300" stroke="none" />
        </g>
        <g id="Group" transform="translate(448.8957 274.2101)">
          <path d="M0 0L210.987 0L210.987 8.77081L0 8.77081L0 0Z" id="Rectangle" fill="#3ACDFF" stroke="none" />
        </g>
        <g id="Group" transform="translate(314.6534 299.6699)">
          <path d="M0 0L182.847 0L182.847 8.77081L0 8.77081L0 0Z" id="Rectangle" fill="#5E41F4" stroke="none" />
        </g>
        <g id="Group" transform="translate(520.5241 299.6699)">
          <path d="M0 0L139.237 0L139.237 8.77081L0 8.77081L0 0Z" id="Rectangle" fill="#FF75C2" stroke="none" />
        </g>
        <g id="Group" transform="translate(314.6534 325.1296)">
          <path d="M0 0L182.847 0L182.847 8.77081L0 8.77081L0 0Z" id="Rectangle" fill="#FFA300" stroke="none" />
        </g>
        <g id="Group" transform="translate(537.0912 325.1296)">
          <path d="M0 0L122.792 0L122.792 8.77081L0 8.77081L0 0Z" id="Rectangle" fill="#FF288C" stroke="none" />
        </g>
        <g id="Group" transform="translate(314.6534 350.4676)">
          <path d="M0 0L182.847 0L182.847 8.77081L0 8.77081L0 0Z" id="Rectangle" fill="#FF288C" stroke="none" />
        </g>
        <g id="Group" transform="translate(537.0912 350.4676)">
          <path d="M0 0L122.792 0L122.792 8.77081L0 8.77081L0 0Z" id="Rectangle" fill="#5E41F4" stroke="none" />
        </g>
        <g id="Group" transform="translate(421.1214 375.8055)">
          <path d="M0 0L238.64 0L238.64 8.77081L0 8.77081L0 0Z" id="Rectangle" fill="#5E41F4" stroke="none" />
        </g>
        <g id="Group" transform="translate(494.0899 401.2653)">
          <path d="M0 0L165.671 0L165.671 8.77081L0 8.77081L0 0Z" id="Rectangle" fill="#FFA300" stroke="none" />
        </g>
        <g id="Group" transform="translate(314.6534 426.725)">
          <path d="M0 0L182.847 0L182.847 8.77081L0 8.77081L0 0Z" id="Rectangle" fill="#3ACDFF" stroke="none" />
        </g>
        <g id="Group" transform="translate(537.0912 426.725)">
          <path d="M0 0L122.792 0L122.792 8.77081L0 8.77081L0 0Z" id="Rectangle" fill="#FF288C" stroke="none" />
        </g>
        <path d="M165.306 4.03668L38.3729 0.016729C17.7858 -0.592356 0.609605 15.4875 0.000520458 36.0746L0.000520458 36.0746C-0.121304 37.6582 21.1967 248.889 21.1967 248.889L73.0907 247.671L76.7452 86.5069L115.239 104.414L165.306 4.03668L165.306 4.03668Z" transform="translate(332.5599 504.4276)" id="Shape" fill="url(#gradient_1)" stroke="none" />
        <path d="M64.8466 35.8238C62.1667 52.7564 46.4523 64.329 29.5197 61.7708C28.7888 61.649 28.1797 61.5272 27.4488 61.4054L23.9161 60.5527C7.47084 56.7763 -3.00542 40.331 0.77091 23.8857C4.05998 9.75495 16.8508 -0.355845 31.347 0.00959131L35.0015 0.131416C52.0559 0.618676 65.6994 14.8713 65.2121 31.9257C65.2121 33.2657 64.9684 34.6057 64.8466 35.8238L64.8466 35.8238L64.8466 35.8238Z" transform="translate(590.5289 430.1263)" id="Shape" fill="#EA7068" stroke="none" />
        <path d="M55.0613 30.3324L51.285 78.572L0 75.2829L6.57811 0L27.0434 0C42.6359 0 55.3049 12.5471 55.3049 28.2616C55.0613 28.8707 55.0613 29.6016 55.0613 30.3324L55.0613 30.3324Z" transform="translate(584.8436 454.2556)" id="Shape" fill="url(#gradient_2)" stroke="none" />
        <path d="M0 4.03668L126.933 0.016729C147.52 -0.592356 164.697 15.4875 165.306 36.0746L165.306 36.0746C165.427 37.6582 144.109 248.889 144.109 248.889L92.2155 247.671L88.5609 86.5069L37.3978 100.881L0 4.03668L0 4.03668Z" transform="translate(479.959 504.4276)" id="Shape" fill="url(#gradient_3)" stroke="none" />
        <path d="M3.91637 0C-8.02168 32.6469 7.81453 77.8411 44.8469 76.8666C73.3521 76.1356 75.423 77.232 87.361 76.9884C125.49 76.0139 150.706 36.6669 138.89 0.365473L3.91637 0L3.91637 0Z" transform="translate(411.236 531.8531)" id="Shape" fill="url(#gradient_4)" stroke="none" />
        <path d="M87.9519 92.5809L105.615 130.953C113.168 147.399 105.859 166.646 89.5355 174.198C89.2919 174.32 89.0482 174.32 88.8046 174.442L88.8046 174.442C75.4047 180.167 59.8122 176.269 50.6759 164.94L0 102.083L10.4763 0L34.4742 20.8307C57.1322 40.6869 75.4048 65.1721 87.9519 92.5809L87.9519 92.5809Z" transform="translate(530.3912 401.7525)" id="Shape" fill="url(#gradient_5)" stroke="none" />
        <path d="M0 18.3944C0 8.23544 8.23544 0 18.3944 0C28.5533 0 36.7888 8.23544 36.7888 18.3944C36.7888 28.5533 28.5533 36.7887 18.3944 36.7887C8.23544 36.7887 0 28.5533 0 18.3944Z" transform="translate(512.7278 295.6499)" id="Circle" fill="#EA7068" stroke="none" />
        <path d="M3.16725 28.3886L34.9615 8.16696C34.9615 8.16696 22.0489 -0.238407 0 0.00520458L3.16725 28.3886L3.16725 28.3886Z" transform="translate(499.937 390.1747)" id="Shape" fill="#2B2B2B" stroke="none" />
        <path d="M0 75.1611L2.31452 0.852734L54.3304 0L58.594 74.3084C59.5685 89.7792 47.7523 103.179 32.2815 104.154C31.6724 104.154 31.1852 104.275 30.5761 104.275L28.3834 104.275C12.7908 104.275 0.121824 91.7282 0.121824 76.0138C0 75.7702 0 75.5266 0 75.1611L0 75.1611Z" transform="translate(454.7429 320.7442)" id="Shape" fill="#EA7068" stroke="none" />
        <path d="M47.3868 128.647L47.3868 128.647C24.607 128.16 5.72538 110.618 3.53269 87.8382L0 48.004C0.487261 21.0824 22.7798 -0.479156 49.8232 0.00810428L49.8232 0.00810428L49.8232 0.00810428C76.7447 0.495365 98.3063 22.7879 97.8191 49.8312L92.7027 89.5436C89.7791 112.323 70.2884 129.134 47.3868 128.647L47.3868 128.647Z" transform="translate(435.6177 244.3568)" id="_Path_" fill="#FEC73A" stroke="none" />
        <path d="M157.388 141.931C155.317 135.718 154.22 129.384 154.22 122.928C154.22 111.964 180.533 95.2752 179.802 62.141C179.193 36.6812 151.54 -0.838459 107.199 0.0142754L71.3848 1.71971C32.4033 2.45062 1.70543 36.6812 0.121824 63.7246L0 63.7246C0 64.5773 0.121824 65.1864 0.121824 66.0391C0.121824 66.2827 0.121824 66.5263 0.121824 66.77L0.121824 66.77C2.55817 111.842 34.1088 109.65 22.4143 141.687L157.388 141.931L157.388 141.931Z" transform="translate(392.8599 390.2874)" id="Shape" fill="url(#gradient_6)" stroke="none" />
        <g id="Group" transform="translate(593.7142 453.8682)">
          <path d="M34.7398 63.7323C34.2525 63.7323 33.6434 63.3668 33.5216 62.8795C21.949 32.0599 0.509231 2.45831 0.26562 2.09287C-0.221641 1.48379 0.0219708 0.631056 0.509268 0.26562C1.11835 -0.221641 1.97109 0.0219708 2.33652 0.509268C2.45835 0.752917 24.1418 30.7199 35.958 61.905C36.2016 62.6359 35.8362 63.3668 35.1052 63.6104C34.9834 63.7323 34.8616 63.7323 34.7398 63.7323L34.7398 63.7323Z" id="Shape" fill="#2B2B2B" stroke="none" />
        </g>
        <g id="Group" transform="translate(534.9537 510.2249)">
          <path d="M14.441 18.7046C14.0755 18.7046 13.5882 18.5827 13.3446 18.2173L0.310193 2.13745C-0.177067 1.65019 -0.0552429 0.675629 0.432017 0.310193C0.919277 -0.177067 1.89383 -0.0552429 2.25927 0.432017L15.2937 16.5119C15.7809 16.9991 15.6591 17.9737 15.1719 18.3391C15.05 18.5827 14.8064 18.7046 14.441 18.7046L14.441 18.7046Z" id="Shape" fill="#2B2B2B" stroke="none" />
        </g>
        <path d="M68.583 28.627L0 28.627L0 0L51.7722 1.21817L71.7502 20.8307C72.603 21.6834 73.0902 22.9016 73.0902 24.1198L73.0902 24.1198C73.212 26.5561 71.0193 28.627 68.583 28.627L68.583 28.627L68.583 28.627Z" transform="translate(572.0527 752.2201)" id="Shape" fill="#2B2B2B" stroke="none" />
        <g id="Group" transform="translate(537.1794 686.8029)">
          <path d="M9.17911e-06 7.15256e-07L17.6646 0L17.6646 93.5615L0 93.5615L9.17911e-06 7.15256e-07Z" transform="matrix(0.9952 -0.09827355 0.09827355 0.9952 0 1.735962)" id="Rectangle" fill="#2B2B2B" stroke="none" />
        </g>
        <path d="M21.9891 0.0628639L22.1109 0.0628639C32.8308 0.915598 40.8707 10.4173 40.018 21.1372L39.1653 31.4916C38.3125 42.2115 28.8108 50.2515 18.0909 49.3987L17.9691 49.3987C7.24924 48.546 -0.790688 39.0443 0.0620089 28.3244L0.914743 17.97C1.76744 7.12823 11.1473 -0.78987 21.9891 0.0628639L21.9891 0.0628639Z" transform="translate(576.3761 579.4207)" id="Shape" fill="#FD8D45" stroke="none" />
        <path d="M177.099 183.456L49.191 183.456C26.8984 183.456 8.38224 166.158 6.79864 143.866L0.0987012 45.3159C-1.48491 21.9271 16.1786 1.70547 39.5674 0.121824C40.5419 0 41.5165 0 42.491 0L183.799 0C207.188 0 226.313 19.0035 226.313 42.5141C226.313 43.4887 226.313 44.4632 226.191 45.4377L219.491 143.988C217.908 166.158 199.391 183.456 177.099 183.456L177.099 183.456Z" transform="translate(374.1231 508.9515)" id="Shape" fill="#FDCF45" stroke="none" />
        <path d="M0 0L455.352 0L455.352 3.89813L0 3.89813L0 0Z" transform="translate(138.0187 778.898)" id="Rectangle" fill="#2B2B2B" stroke="none" />
        <path d="M31.4288 0L95.5045 0C112.924 0 126.933 14.1308 126.933 31.4288L126.933 46.1686C126.933 63.5885 112.803 77.5974 95.5045 77.5974L31.4288 77.5974C14.009 77.5974 0 63.4666 0 46.1686L0 31.5506C0.121787 14.009 14.1307 0 31.4288 0L31.4288 0Z" transform="translate(741.3784 365.5729)" id="Shape" fill="#F9D5FF" stroke="none" />
        <path d="M15.1053 23.0234L9.25807 23.0234L0 0L5.48177 0L12.3035 17.7853L19.1252 0L24.3633 0L15.1053 23.0234L15.1053 23.0234Z" transform="translate(769.5181 393.2253)" id="Shape" fill="#FFA300" stroke="none" />
        <path d="M18.638 23.519L23.6325 23.519L23.6325 0.617413L18.638 0.617413L18.638 3.2974C16.9326 1.10467 14.2526 -0.113497 11.4508 0.00832734C4.99446 0.00832734 0 5.00284 0 12.0682C0 19.1336 4.99454 24.1281 11.4508 24.1281C14.2527 24.2499 16.9326 23.0317 18.638 20.839L18.638 23.519ZM12.1817 19.499C7.91815 19.499 5.23816 16.0881 5.23816 12.0682C5.23816 7.9264 7.79628 4.75915 12.1817 4.63733C16.3235 4.63733 19.1253 7.80458 19.1253 12.0682C19.1253 16.3318 16.3235 19.499 12.1817 19.499Z" transform="translate(796.3177 392.7298)" id="Shape" fill="#FFA300" fill-rule="evenodd" stroke="none" />
        <path d="M15.4707 0.739274L14.2525 5.73378C13.0344 5.24652 11.8162 4.88105 10.4762 4.88105C7.30902 4.88105 4.99447 7.19556 4.99447 11.0937L4.99447 23.6409L0 23.6409L0 0.61745L4.99447 0.61745L4.99447 3.17562C6.45629 1.10471 9.01442 -0.11346 11.6944 0.00836451C12.9126 0.130189 14.2525 0.252014 15.4707 0.739274L15.4707 0.739274Z" transform="translate(827.8685 392.6079)" id="Shape" fill="#FFA300" stroke="none" />
        <path d="M31.4288 0L95.5045 0C112.924 0 126.933 14.1308 126.933 31.4288L126.933 46.1686C126.933 63.5885 112.803 77.5974 95.5045 77.5974L31.4288 77.5974C14.009 77.5974 0 63.4667 0 46.1686L0 31.5506C0 14.1308 14.1307 0 31.4288 0L31.4288 0Z" transform="translate(576.4381 58.59399)" id="Shape" fill="#F9D5FF" stroke="none" />
        <path d="M20.2216 12.5496C20.3434 11.9405 20.3434 11.4532 20.3434 10.8441C20.3434 4.38783 16.3235 -0.119408 10.4763 0.00240712C4.26359 0.00240712 0 4.38782 0 10.9659C0 17.5441 4.50721 21.9295 10.7199 21.9295C13.8871 22.0513 16.9325 21.0767 19.3689 19.0059L17.0544 15.7168C15.2271 17.0568 13.1562 17.7877 10.9635 17.9095C7.79628 18.1531 4.9945 15.7168 4.75085 12.5496L20.2216 12.5496ZM15.7144 9.13869L4.87268 9.13869C5.23815 6.09327 7.06541 4.02237 10.4763 3.90056C13.278 3.90056 15.2271 5.84964 15.7144 9.13869Z" transform="translate(602.1415 86.85312)" id="Shape" fill="#5E41F4" fill-rule="evenodd" stroke="none" />
        <path d="M4.62903 31.5506L0 31.5506L0 0L4.62903 0L4.62903 31.5506L4.62903 31.5506Z" transform="translate(628.0886 76.74472)" id="Shape" fill="#5E41F4" stroke="none" />
        <path d="M16.0798 5.73691C14.1308 4.64056 11.8162 4.03147 9.62356 4.03147C7.18722 4.03147 5.60362 5.00601 5.60362 6.46781C5.60362 7.92961 7.06544 8.29507 9.01448 8.66052L11.2072 9.02598C15.8362 9.63506 18.5162 11.5841 18.5162 15.2386C18.5162 19.2586 14.9835 22.0604 9.01448 22.0604C5.84727 22.1822 2.67999 21.2077 0 19.3804L2.0709 15.9695C4.01994 17.4313 6.45628 18.2841 8.89261 18.0404C11.938 18.0404 13.6435 17.0659 13.6435 15.4823C13.6435 14.3859 12.5471 13.5332 9.989 13.1677L7.79631 12.9241C3.16728 12.315 0.609084 10.1223 0.609084 6.71145C0.609084 2.56967 3.89815 0.0115151 9.25805 0.0115151C12.3035 -0.1103 15.1052 0.742415 17.6634 2.20423L16.0798 5.73691L16.0798 5.73691Z" transform="translate(638.0775 86.84402)" id="Shape" fill="#5E41F4" stroke="none" />
        <path d="M20.2216 12.5496C20.3434 11.9405 20.3434 11.4532 20.3434 10.8441C20.2216 4.38783 16.2016 -0.119408 10.3544 0.00240712C4.2636 0.00240712 0 4.38782 0 10.9659C0 17.5441 4.50724 21.9295 10.7199 21.9295C13.8871 22.0513 16.9325 21.0767 19.3689 19.0059L17.0543 15.7168C15.2271 17.0568 13.1561 17.7877 10.9635 17.9095C7.79624 18.1531 4.99447 15.7168 4.75082 12.5496L20.2216 12.5496ZM15.5926 9.13869L4.75082 9.13869C5.11626 6.09327 6.94352 4.02237 10.3545 3.90056C13.1562 3.90056 15.1053 5.84964 15.5926 9.13869Z" transform="translate(660.6138 86.85312)" id="Shape" fill="#5E41F4" fill-rule="evenodd" stroke="none" />
        <g id="Group" transform="translate(680.7135 207.698)">
          <path d="M58.8376 96.4791C59.934 96.6009 61.0303 96.7227 62.1267 96.7227C67.8521 96.7227 73.3339 94.0427 77.232 89.2919C82.3483 83.0792 83.5665 75.892 80.521 69.0702C78.6938 65.1721 74.9175 60.0558 66.7557 55.3049C88.3174 33.9869 122.913 7.30902 123.401 6.94357L118.041 0C116.335 1.33998 80.0337 29.2361 58.3503 51.285C46.2905 46.2905 27.8961 42.3923 0.365436 41.296L0 50.0668C21.318 50.9195 38.8597 53.5995 51.7722 58.2285C51.6504 58.3503 51.4067 58.7158 51.2849 58.8376C41.2959 70.2884 42.636 79.5465 44.2196 84.1755C46.5341 90.6319 52.1377 95.3827 58.8376 96.4791ZM57.985 64.4412C58.7159 63.5885 59.5686 62.7358 60.4213 61.7612C66.634 65.0503 70.7758 68.7048 72.4812 72.6029C74.0648 76.2574 73.4558 79.912 70.4103 83.5665C66.8776 87.9519 62.614 87.9519 60.4213 87.5864C56.8886 86.8555 53.8432 84.4192 52.625 81.0083C50.9196 76.2574 52.8686 70.2884 57.985 64.4412Z" id="Shape" fill="#F9D5FF" fill-rule="evenodd" stroke="none" />
        </g>
        <path d="M31.4296 0L95.5053 0C112.925 0 126.934 14.1308 126.934 31.4288L126.934 46.1687C126.934 63.5885 112.803 77.5975 95.5053 77.5975L31.4296 77.5975C14.0098 77.5975 0.000817863 63.4667 0.000817863 46.1687L0.000817863 31.4288C-0.120969 14.009 14.0098 0 31.4296 0L31.4296 0Z" transform="translate(779.9935 164.0875)" id="Shape" fill="#F9D5FF" stroke="none" />
        <path d="M5.11633 10.2326C7.91811 10.2326 10.2327 7.91811 10.2327 5.11631C10.1108 2.31452 7.91811 0.121806 5.11633 0C2.31455 0 0 2.31452 0 5.11631C0 7.91811 2.31455 10.2326 5.11633 10.2326ZM5.48177 37.0324L9.0145 20.9525L1.82726 20.9525L0.243652 37.0324L5.48177 37.0324Z" transform="translate(838.4665 184.3091)" id="Shape" fill="#3ACDFF" fill-rule="evenodd" stroke="none" />
        <g id="Group" transform="translate(680.9572 401.2653)">
          <path d="M0 0L75.0393 0L75.0393 8.77081L0 8.77081L0 0Z" id="Rectangle" fill="#F9D5FF" stroke="none" />
        </g>
        <g id="Group" transform="translate(680.7135 207.698)">
          <path d="M58.8376 96.4791C59.934 96.6009 61.0303 96.7227 62.1267 96.7227C67.8521 96.7227 73.3339 94.0427 77.232 89.2919C82.3483 83.0792 83.5665 75.892 80.521 69.0702C78.6938 65.1721 74.9175 60.0558 66.7557 55.3049C88.3174 33.9869 122.913 7.30902 123.401 6.94357L118.041 0C116.335 1.33998 80.0337 29.2361 58.3503 51.285C46.2905 46.2905 27.8961 42.3923 0.365436 41.296L0 50.0668C21.318 50.9195 38.8597 53.5995 51.7722 58.2285C51.6504 58.3503 51.4067 58.7158 51.2849 58.8376C41.2959 70.2884 42.636 79.5465 44.2196 84.1755C46.5341 90.6319 52.1377 95.3827 58.8376 96.4791ZM57.985 64.4412C58.7159 63.5885 59.5686 62.7358 60.4213 61.7612C66.634 65.0503 70.7758 68.7048 72.4812 72.6029C74.0648 76.2574 73.4558 79.912 70.4103 83.5665C66.8776 87.9519 62.614 87.9519 60.4213 87.5864C56.8886 86.8555 53.8432 84.4192 52.625 81.0083C50.9196 76.2574 52.8686 70.2884 57.985 64.4412Z" id="Shape" fill="#F9D5FF" fill-rule="evenodd" stroke="none" />
        </g>
        <path d="M0 272.726C96.8445 272.726 93.6773 113.39 177.853 92.4371C211.474 84.0318 229.747 57.1102 245.339 27.7523C271.286 -21.0963 339.869 -1.36197 339.869 55.0393L339.869 272.848L0 272.848L0 272.726Z" transform="translate(564.6219 510.0698)" id="Shape" fill="url(#gradient_7)" stroke="none" />
        <path d="M0 109.397C52.3813 109.397 48.1177 40.692 110.975 47.6356C132.537 50.0719 145.449 22.9067 152.271 11.0904C163.844 -8.40027 194.298 -0.603955 194.298 22.054L194.298 109.275L0 109.275L0 109.397Z" transform="translate(714.4568 677.2975)" id="Shape" fill="url(#gradient_8)" stroke="none" />
        <g id="Group" transform="translate(405.407 573.3926)">
          <path d="M162.382 2.67999L1.33999 2.67999C0.609085 2.67999 0 2.07091 0 1.34C0 0.609086 0.609085 0 1.33999 0L162.504 0C163.235 0 163.844 0.609086 163.844 1.34C163.844 2.07091 163.113 2.67999 162.382 2.67999L162.382 2.67999Z" id="Shape" fill="#FD8D45" stroke="none" />
        </g>
        <g id="Group" transform="translate(412.4725 621.0231)">
          <path d="M148.251 2.67999L1.33999 2.67999C0.609085 2.67999 0 2.07091 0 1.34C0 0.609086 0.609085 0 1.33999 0L148.129 0C148.86 0 149.469 0.609086 149.469 1.34C149.469 2.07091 148.982 2.67999 148.251 2.67999L148.251 2.67999Z" id="Shape" fill="#FD8D45" stroke="none" />
        </g>
      </g>
    </g>
  </g>
</svg>