<?xml version="1.0" encoding="utf-8"?>
<svg width="959px" height="810px" viewBox="0 0 959 810" version="1.1" xmlns:xlink="http://www.w3.org/1999/xlink" xmlns="http://www.w3.org/2000/svg">
  <desc>Created with Lunacy</desc>
  <defs>
    <linearGradient x1="0.49999997" y1="0.1791892" x2="0.49999997" y2="0.9671426" id="gradient_1">
      <stop offset="0" stop-color="#FFD8A1" />
      <stop offset="0.9958" stop-color="#FFFFFF" />
    </linearGradient>
    <linearGradient x1="0.5" y1="1.04652739" x2="0.5" y2="-0.111174583" id="gradient_2">
      <stop offset="0" stop-color="#FDBB6D" />
      <stop offset="0.4092" stop-color="#D8727E" />
      <stop offset="0.4989" stop-color="#C498A7" />
      <stop offset="0.599" stop-color="#92B7B7" />
      <stop offset="1" stop-color="#F3ECD8" />
    </linearGradient>
    <linearGradient x1="0.5" y1="1.80409431" x2="0.5" y2="0.196038246" id="gradient_3">
      <stop offset="0" stop-color="#FDBB6D" />
      <stop offset="0.4092" stop-color="#D8727E" />
      <stop offset="0.4989" stop-color="#C498A7" />
      <stop offset="0.599" stop-color="#92B7B7" />
      <stop offset="1" stop-color="#F3ECD8" />
    </linearGradient>
    <linearGradient x1="0.499999762" y1="2.65616512" x2="0.499999762" y2="-0.7076435" id="gradient_4">
      <stop offset="0" stop-color="#FDBB6D" />
      <stop offset="0.4092" stop-color="#D8727E" />
      <stop offset="0.4989" stop-color="#C498A7" />
      <stop offset="0.599" stop-color="#92B7B7" />
      <stop offset="1" stop-color="#F3ECD8" />
    </linearGradient>
    <linearGradient x1="0.5" y1="0.179080963" x2="0.5" y2="0.967124" id="gradient_5">
      <stop offset="0" stop-color="#FFD8A1" />
      <stop offset="0.9958" stop-color="#FFFFFF" />
    </linearGradient>
    <rect width="959" height="810" id="artboard_1" />
    <clipPath id="clip_1">
      <use xlink:href="#artboard_1" clip-rule="evenodd" />
    </clipPath>
  </defs>
  <g id="Custom-size" clip-path="url(#clip_1)">
    <use xlink:href="#artboard_1" stroke="none" fill="#FFFFFF" fill-opacity="0" />
    <g id="marginalia-success">
      <path d="M279.7 206.904C200.1 206.904 202.6 86.1041 133.3 70.1041C105.6 63.7041 90.6 43.3041 77.8 21.0042C56.5 -15.9959 0 -0.99585 0 41.7042L0 206.904L279.7 206.904L279.7 206.904L279.7 206.904Z" transform="translate(4.899963 603.5958)" id="Shape" fill="url(#gradient_1)" stroke="none" />
      <g id="Group" transform="translate(48.79999 68.20001)">
        <path d="M0 4.1C0 1.83563 1.83563 0 4.1 0C6.36437 0 8.2 1.83563 8.2 4.1C8.2 6.36437 6.36437 8.2 4.1 8.2C1.83563 8.2 0 6.36437 0 4.1Z" transform="translate(0 226.7)" id="Circle" fill="#BFD9FF" stroke="none" />
        <path d="M0 4.1C0 1.83563 1.83563 0 4.1 0C6.36437 0 8.2 1.83563 8.2 4.1C8.2 6.36437 6.36437 8.2 4.1 8.2C1.83563 8.2 0 6.36437 0 4.1Z" transform="translate(838.9999 439.9)" id="Circle" fill="#BFD9FF" stroke="none" />
        <path d="M0 4.1C0 1.83563 1.83563 0 4.1 0C6.36437 0 8.2 1.83563 8.2 4.1C8.2 6.36437 6.36437 8.2 4.1 8.2C1.83563 8.2 0 6.36437 0 4.1Z" transform="translate(795.9999 0)" id="Circle" fill="#BFD9FF" stroke="none" />
        <path d="M0 4.1C0 1.83563 1.83563 0 4.1 0C6.36437 0 8.2 1.83563 8.2 4.1C8.2 6.36437 6.36437 8.2 4.1 8.2C1.83563 8.2 0 6.36437 0 4.1Z" transform="translate(660.7 206.3)" id="Circle" fill="#BFD9FF" stroke="none" />
        <path d="M0 4.1C0 1.83563 1.83563 0 4.1 0C6.36437 0 8.2 1.83563 8.2 4.1C8.2 6.36437 6.36437 8.2 4.1 8.2C1.83563 8.2 0 6.36437 0 4.1Z" transform="translate(299.4999 25.20001)" id="Circle" fill="#BFD9FF" stroke="none" />
        <path d="M0 3.8C0 1.70132 1.70132 0 3.8 0C5.89868 0 7.6 1.70132 7.6 3.8C7.6 5.89868 5.89868 7.6 3.8 7.6C1.70132 7.6 0 5.89868 0 3.8Z" transform="translate(617.1 540.9)" id="Circle" fill="#BFD9FF" stroke="none" />
        <path d="M0 3.8C0 1.70132 1.70132 0 3.8 0C5.89868 0 7.6 1.70132 7.6 3.8C7.6 5.89868 5.89868 7.6 3.8 7.6C1.70132 7.6 0 5.89868 0 3.8Z" transform="matrix(0.9565 -0.2918 0.2918 0.9565 3.472168 436.8892)" id="Ellipse" fill="#BFD9FF" stroke="none" />
      </g>
      <g id="Group" transform="translate(25.93164 360.2001)">
        <path d="M173.3 71.4L70.1 245.4L0 203.8C1.7 198.2 3.7 192.6 5.5 187.1L11.4 170.6C15.3 159.6 19.5 148.7 23.7 137.8C32.1 116.1 41 94.7 50.1 73.3C54.7 62.7 59.3 52 64 41.5L71.1 25.7L78.3 10C79.8 6.70001 81.4 3.29999 82.9 0" transform="translate(66.86832 171)" id="Shape" fill="#FDC068" stroke="none" />
        <g id="Group" transform="translate(0 361.2628)">
          <path d="M3.46832 11.6372L115.868 65.6372C121.768 68.4372 128.768 66.0372 131.768 60.2372L138.968 46.1372L67.5683 12.7372L7.36831 0.137207C0.368309 -1.26282 -3.03168 8.43719 3.46832 11.6372L3.46832 11.6372Z" id="Shape" fill="#2B2B2B" stroke="none" />
        </g>
        <path d="M325.6 110.9L279.9 0L276.2 1L272.5 2.10001L265.1 4.30002L257.8 6.70001L250.5 9.10001C245.6 10.7 240.8 12.4 236 14.1L221.6 19.4C202.5 26.5 183.5 34.2 164.7 42.2C145.9 50.2 127.3 58.6 108.7 67.2C90.2 75.9 71.8 84.8 53.5 94L45.3 98.0999C36.8 102.3 29.6 109.3 25.1 118.5C16.6 135.9 8.20001 153.3 0 170.9L90.2 242.5L117.3 196.8L325.6 110.9L325.6 110.9Z" transform="translate(149.7683 0)" id="Shape" fill="url(#gradient_2)" stroke="none" />
      </g>
      <path d="M0 66.9L35.2 0L142.2 65.6L0 94.5L0 66.9Z" transform="translate(359.2 408.9)" id="Polygon" fill="#2B2B2B" stroke="none" />
      <g id="Group" transform="translate(132.1 473.6)">
        <g id="Group" transform="translate(166.2 0)">
          <g id="Group" transform="translate(122 0.5999756)">
            <path d="M0 0L243 0L243 192.2L0 192.2L0 0Z" transform="translate(5 5)" id="Rectangle" fill="#F9D5FF" stroke="none" />
            <path d="M0 202.2L253 202.2L253 0L0 0L0 202.2ZM243 192.2L10 192.2L10 10L243 10L243 192.2Z" id="Shape" fill="#F9D5FF" fill-rule="evenodd" stroke="none" />
          </g>
          <path d="M0 0L58.4 115.9L58.4 81.5L16.6 0L0 0Z" transform="translate(316.7 0)" id="Polygon" fill="#2B2B2B" stroke="none" />
          <g id="Group">
            <path d="M0 0L243 0L243 192.2L0 192.2L0 0Z" transform="translate(5.599976 5.599976)" id="Rectangle" fill="#FFFFFF" stroke="none" />
            <path d="M0 203.4L254.2 203.4L254.2 0L0 0L0 203.4ZM243 192.2L11.2 192.2L11.2 11.2L243 11.2L243 192.2Z" id="Shape" fill="#F9D5FF" fill-rule="evenodd" stroke="none" />
          </g>
        </g>
        <g id="Group" transform="translate(0 192.8)">
          <g id="Group">
            <path d="M0 0L166.7 0L166.7 133.2L0 133.2L0 0Z" transform="translate(5 5)" id="Rectangle" fill="#FFFFFF" stroke="none" />
            <path d="M0 143.2L176.7 143.2L176.7 0L0 0L0 143.2ZM166.7 133.2L10 133.2L10 10L166.7 10L166.7 133.2Z" id="Shape" fill="#F9D5FF" fill-rule="evenodd" stroke="none" />
          </g>
        </g>
        <g id="Group" transform="translate(166.3 0)">
          <g id="Group" transform="translate(121.9 133.8)">
            <path d="M0 0L243 0L243 192.2L0 192.2L0 0Z" transform="translate(5 5)" id="Rectangle" fill="#FFFFFF" stroke="none" />
            <path d="M0 202.2L253 202.2L253 0L0 0L0 202.2ZM243 192.2L10 192.2L10 10L243 10L243 192.2Z" id="Shape" fill="#F9D5FF" fill-rule="evenodd" stroke="none" />
          </g>
          <g id="Group" transform="translate(0.5 0.5999756)">
            <path d="M0 0L243 0L243 325.4L0 325.4L0 0Z" transform="translate(5 5)" id="Rectangle" fill="#FFFFFF" stroke="none" />
            <path d="M0 335.4L253 335.4L253 0L0 0L0 335.4ZM243 325.4L10 325.4L10 10L243 10L243 325.4Z" id="Shape" fill="#F9D5FF" fill-rule="evenodd" stroke="none" />
          </g>
          <path d="M111.2 0L24.7 178.2C20.1 187.6 10.5 193.6 0 193.6L0 193.6L0 63.1L64.3 0L111.2 0L111.2 0Z" id="Shape" fill="#2B2B2B" stroke="none" />
        </g>
        <g id="Group" transform="translate(409.7 133.8)">
          <g id="Group" transform="translate(70.70001 0)">
            <path d="M0 0L192.2 0L192.2 192.2L0 192.2L0 0Z" transform="translate(5 5)" id="Rectangle" fill="#F9D5FF" stroke="none" />
            <path d="M0 202.2L202.2 202.2L202.2 0L0 0L0 202.2ZM192.2 192.2L10 192.2L10 10L192.2 10L192.2 192.2Z" id="Shape" fill="#F9D5FF" fill-rule="evenodd" stroke="none" />
          </g>
          <g id="Group">
            <path d="M0 0L166.7 0L166.7 192.2L0 192.2L0 0Z" transform="translate(5 5)" id="Rectangle" fill="#FFFFFF" stroke="none" />
            <path d="M0 202.2L176.7 202.2L176.7 0L0 0L0 202.2ZM166.7 192.2L10 192.2L10 10L166.7 10L166.7 192.2Z" id="Shape" fill="#F9D5FF" fill-rule="evenodd" stroke="none" />
          </g>
        </g>
        <g id="Group" transform="translate(268 131.2)">
          <path d="M24.4 66.6L16.3 66.6L16.3 14.8C14.3 16.7001 11.8 18.5001 8.60001 20.4C5.39999 22.3 2.60001 23.7 0 24.6L0 16.7C4.5 14.6 8.5 12 11.9 8.90002C15.3 5.90002 17.7 2.90002 19.1 0L24.3 0L24.3 66.6L24.4 66.6L24.4 66.6Z" id="Shape" fill="#F9D5FF" stroke="none" />
        </g>
        <g id="Group" transform="translate(464.2847 201.8)">
          <path d="M43.8153 58.7L43.8153 66.5L0.0153198 66.5C-0.0846558 64.5 0.315308 62.7 0.915344 60.9C2.01532 57.9 3.81537 55 6.31537 52.1C8.81537 49.2001 12.3154 45.9 16.9153 42.1C24.1154 36.2 29.0153 31.5001 31.5153 28.1C34.0153 24.7 35.3153 21.4 35.3153 18.3C35.3153 15.1 34.1153 12.4 31.8153 10.1C29.5153 7.90002 26.5153 6.80005 22.8153 6.80005C18.9153 6.80005 15.8153 8.00006 13.4153 10.3C11.0153 12.6 9.91528 15.9 9.81531 20.1L1.41528 19.2C2.01526 13 4.1153 8.20001 7.91528 4.90002C11.6153 1.60004 16.6153 0 22.9153 0C29.3153 0 34.3153 1.79999 38.0153 5.29999C41.7153 8.79999 43.6152 13.2 43.6152 18.4C43.6152 21.1 43.1152 23.7 42.0153 26.2C40.9153 28.7999 39.1152 31.4999 36.6152 34.2999C34.1152 37.0999 29.9152 40.9999 24.1152 45.9999C19.2152 50.0999 16.1152 52.9 14.7152 54.2999C13.3152 55.7999 12.2152 57.2 11.3152 58.7L43.8153 58.7L43.8153 58.7L43.8153 58.7Z" id="Shape" fill="#F9D5FF" stroke="none" />
        </g>
        <g id="Group" transform="translate(60.89999 226.3)">
          <path d="M0 48.9L8.10001 47.8001C9 52.4 10.6 55.7001 12.9 57.8C15.1 59.8001 17.9 60.8 21.1 60.8C24.9 60.8 28.2 59.5001 30.8 56.8001C33.4 54.2001 34.8 50.9 34.8 47.0001C34.8 43.3 33.6 40.2001 31.1 37.8C28.6 35.4 25.6 34.2001 21.8 34.2001C20.3 34.2001 18.4 34.5001 16.1 35.1001L17 28.0001C17.5 28.1001 18 28.1001 18.3 28.1001C21.8 28.1001 24.9 27.2001 27.6 25.4001C30.4 23.6001 31.8 20.8001 31.8 17.0001C31.8 14.0001 30.8 11.5001 28.8 9.60004C26.8 7.60004 24.2 6.70001 21 6.70001C17.8 6.70001 15.2 7.70001 13.1 9.70001C11 11.7 9.60001 14.7 9 18.6L0.899994 17.2C1.89999 11.7 4.19998 7.5 7.69998 4.5C11.2 1.5 15.6 0 20.8 0C24.4 0 27.7 0.799988 30.8 2.29999C33.8 3.89996 36.2 6 37.8 8.59998C39.4 11.3 40.2 14.1 40.2 17.1C40.2 20 39.4 22.6 37.9 24.9C36.4 27.2 34.1 29.1 31.1 30.4999C35 31.4 38.1 33.2999 40.2 36.0999C42.3 38.8999 43.5 42.4999 43.5 46.7999C43.5 52.5999 41.4 57.4999 37.2 61.4999C33 65.4999 27.7 67.4999 21.2 67.4999C15.4 67.4999 10.6 65.7999 6.70001 62.2999C2.70001 58.9 0.5 54.4 0 48.9L0 48.9Z" id="Shape" fill="#F9D5FF" stroke="none" />
        </g>
      </g>
      <g id="Group" transform="translate(52.89996 47.82385)">
        <path d="M0 0L84.2 0L84.2 4.1L0 4.1L0 0Z" transform="translate(0 757.5762)" id="Rectangle" fill="#2B2B2B" stroke="none" />
        <g id="Group" transform="translate(92.20168 0)">
          <path d="M17.7 0L102.6 31.7C122.5 39.1 132.6 61.3 125.2 81.2C117.8 101.1 95.6 111.2 75.7 103.8L0 75.5L17.7 0L17.7 0Z" transform="translate(274.5983 171.1762)" id="Shape" fill="#BE6361" stroke="none" />
          <path d="M206.864 216.181L101.164 176.781L98.7636 175.881C92.4636 173.581 87.4636 169.381 84.0636 164.181L4.56357 43.081C-3.83643 30.281 -0.336426 12.981 12.5636 4.58102C24.2636 -3.11897 39.5636 -0.81897 48.5636 9.28102L145.164 117.281L128.064 104.681L224.564 140.681L206.864 216.181L206.864 216.181Z" transform="translate(67.73477 30.59516)" id="Shape" fill="#FDC068" stroke="none" />
          <path d="M0 155.923C7 105.323 41.4 112.323 32.7 76.5229C24 40.7229 45.9 -4.87711 84.7999 0.422882C114.8 4.52289 117 3.62289 129.6 5.32288C169.6 10.8229 191.5 55.2229 174.8 91.9229C174.8 91.9229 170.6 100.123 169.2 111.623C167.9 123.123 193.7 143.823 189 178.623L0 155.923L0 155.923Z" transform="translate(271.5983 191.6533)" id="Shape" fill="#BE6361" stroke="none" />
          <path d="M0 0L22.8 4.39999L9.59998 35.5L0.799988 31C5.79999 17.4 0.200012 11 0 0L0 0Z" transform="translate(302.6983 258.4762)" id="Shape" fill="#2B2B2B" stroke="none" />
          <g id="Group" transform="translate(271.3463 155.0142)">
            <path d="M49.5958 118.196L7.59576 61.4958C-5.10425 44.3958 -1.50421 20.2958 15.5958 7.59579C32.6957 -5.10422 56.7958 -1.50421 69.4958 15.5958L109.796 69.8958L49.5958 118.196L49.5958 118.196Z" transform="translate(111.9563 67.46622)" id="Shape" fill="#BE6361" stroke="none" />
            <path d="M7.5 73.3L74.8 0L0 52L7.5 73.3Z" transform="translate(84.952 59.26202)" id="Polygon" fill="#2B2B2B" stroke="none" />
            <path d="M30 60L30 60C13.4 60 0 46.6 0 30L0 30C0 13.4 13.4 0 30 0L30 0C46.6 0 60 13.4 60 30L60 30C60 46.6 46.6 60 30 60L30 60Z" transform="translate(37.05203 105.362)" id="Shape" fill="#FDE545" stroke="none" />
            <g id="Group">
              <path d="M4.60577 1.862L4.60577 1.862C-0.194214 5.16199 -1.4942 11.762 1.90576 16.562L11.9058 31.062C15.2057 35.862 21.8058 37.162 26.6058 33.762L26.6058 33.762C31.4058 30.462 32.7057 23.862 29.3058 19.062L19.3058 4.56201C16.0058 -0.237976 9.40582 -1.43799 4.60577 1.862L4.60577 1.862Z" transform="translate(50.64621 0)" id="Shape" fill="#6AC69F" stroke="none" />
              <path d="M0.30835 17.3084L0.30835 17.3084C1.70837 23.0084 7.40833 26.5084 13.1083 25.1084L30.2083 20.9084C35.9083 19.5084 39.4083 13.8083 38.0083 8.10837L38.0083 8.10837C36.6083 2.40836 30.9083 -1.09164 25.2083 0.30838L8.10834 4.50839C2.40839 5.90839 -1.09161 11.6084 0.30835 17.3084L0.30835 17.3084Z" transform="translate(26.14365 16.35364)" id="Shape" fill="#6AC69F" stroke="none" />
              <path d="M0.930298 22.0726L0.930298 22.0726C3.33032 27.3726 9.63031 29.7726 14.9303 27.4726L31.0303 20.2726C36.3303 17.8726 38.7303 11.5725 36.4303 6.27255L36.4303 6.27255C34.0303 0.972565 27.7303 -1.42746 22.4303 0.872559L6.33032 8.07257C0.930298 10.4726 -1.46973 16.7726 0.930298 22.0726L0.930298 22.0726Z" transform="translate(42.72171 16.48944)" id="Shape" fill="#6AC69F" stroke="none" />
              <path d="M10.1141 38.8139L10.1141 38.8139C15.9141 39.1139 20.9141 34.5139 21.2141 28.7139L22.0141 11.1139C22.3141 5.3139 17.7141 0.313904 11.9141 0.0138855L11.9141 0.0138855C6.11414 -0.286102 1.11414 4.31387 0.814148 10.1139L0.0141602 27.7139C-0.285828 33.6139 4.21417 38.6139 10.1141 38.8139L10.1141 38.8139Z" transform="translate(28.33786 47.94812)" id="Shape" fill="#6AC69F" stroke="none" />
              <path d="M0.930328 22.0726L0.930328 22.0726C3.33032 27.3726 9.63034 29.7726 14.9303 27.4726L31.0303 20.2726C36.3303 17.8726 38.7303 11.5725 36.4303 6.27255L36.4303 6.27255C34.0303 0.972565 27.7303 -1.42746 22.4303 0.872559L6.33032 8.07257C0.930328 10.4726 -1.4697 16.7726 0.930328 22.0726L0.930328 22.0726Z" transform="translate(13.42169 36.98944)" id="Shape" fill="#6AC69F" stroke="none" />
              <path d="M16.1217 38.3217L16.1217 38.3217C21.8217 37.2216 25.6217 31.6216 24.4217 25.8217L21.0217 8.52167C19.9217 2.82166 14.3217 -0.978333 8.52167 0.22168L8.52167 0.22168C2.82166 1.32169 -0.978333 6.92169 0.22168 12.7217L3.62167 30.0217C4.72168 35.7216 10.3217 39.4217 16.1217 38.3217L16.1217 38.3217Z" transform="translate(20.43033 72.24036)" id="Shape" fill="#6AC69F" stroke="none" />
              <path d="M1.74945 26.1495L1.74945 26.1495C4.94946 31.0495 11.5494 32.3495 16.4495 29.1495L31.1494 19.4495C36.0495 16.2495 37.3495 9.64948 34.1494 4.74945L34.1494 4.74945C30.9494 -0.150543 24.3495 -1.45056 19.4494 1.74945L4.74942 11.4495C-0.150543 14.7495 -1.45053 21.2495 1.74945 26.1495L1.74945 26.1495Z" transform="translate(3.802551 59.31253)" id="Shape" fill="#6AC69F" stroke="none" />
              <path d="M4.052 32.752L4.052 32.752C8.65201 36.352 15.352 35.5519 18.952 30.952L29.852 17.152C33.452 12.552 32.652 5.85199 28.052 2.25198L28.052 2.25198C23.452 -1.34802 16.752 -0.548004 13.152 4.05197L2.25201 17.852C-1.34799 22.452 -0.548004 29.1519 4.052 32.752L4.052 32.752Z" transform="translate(0 87.71005)" id="Shape" fill="#6AC69F" stroke="none" />
              <path d="M12.2142 38.8142L12.2142 38.8142C18.0142 38.5142 22.5142 33.5142 22.2142 27.6142L21.2142 10.0142C20.9142 4.21417 15.9142 -0.285828 10.0142 0.0141602L10.0142 0.0141602C4.21417 0.314148 -0.285828 5.31415 0.0141602 11.2142L1.01416 28.8142C1.31415 34.7142 6.31415 39.2142 12.2142 38.8142L12.2142 38.8142Z" transform="translate(15.13785 106.7478)" id="Shape" fill="#6AC69F" stroke="none" />
              <path d="M8.68597 38.2597L8.68597 38.2597C14.486 39.2597 19.986 35.4597 20.986 29.7597L24.186 12.4597C25.186 6.6597 21.386 1.1597 15.686 0.159699L15.686 0.159699C9.88599 -0.840302 4.38599 2.95969 3.38599 8.6597L0.185974 25.9597C-0.914002 31.7597 2.98602 37.2597 8.68597 38.2597L8.68597 38.2597Z" transform="translate(44.56601 33.30234)" id="Shape" fill="#6AC69F" stroke="none" />
            </g>
            <path d="M16.8 33.6L16.8 33.6C7.5 33.6 0 26.1 0 16.8L0 16.8C0 7.5 7.5 0 16.8 0L16.8 0C26.1 0 33.6 7.5 33.6 16.8L33.6 16.8C33.6 26 26.1 33.6 16.8 33.6L16.8 33.6Z" transform="translate(50.25204 118.562)" id="Shape" fill="#FDB145" stroke="none" />
            <g id="Group" transform="translate(35.80057 35.32593)">
              <path d="M11.2515 12.3361C11.1515 12.3361 10.9515 12.3361 10.8514 12.2361C10.1514 12.0361 9.85144 11.2361 10.0515 10.5361L12.7515 3.13608L1.65149 6.03607C0.951477 6.23608 0.251465 5.83606 0.0515137 5.13608C-0.148499 4.43607 0.251526 3.73608 0.951538 3.53607L14.4515 0.0360718C14.9515 -0.0639343 15.4515 0.0360718 15.7515 0.436066C16.0515 0.83606 16.1516 1.33606 16.0515 1.73605L12.5515 11.4361C12.2515 12.0361 11.7515 12.3361 11.2515 12.3361L11.2515 12.3361Z" id="Shape" fill="#2B2B2B" stroke="none" />
            </g>
            <g id="Group" transform="translate(14.7439 57.95392)">
              <path d="M1.30811 9.2081C0.908112 9.2081 0.508118 9.00809 0.208099 8.60809C-0.191895 8.00809 0.00808716 7.2081 0.608093 6.80811L10.8081 0.208099C11.4081 -0.191895 12.2081 0.00808716 12.6081 0.608093C13.0081 1.2081 12.8081 2.00809 12.208 2.40808L2.00803 9.00809C1.80811 9.10809 1.50812 9.2081 1.30811 9.2081L1.30811 9.2081Z" id="Shape" fill="#2B2B2B" stroke="none" />
            </g>
            <g id="Group" transform="translate(27.05203 74.46204)">
              <path d="M1.29999 15C0.599976 15 0 14.4 0 13.7L0 1.29999C0 0.599976 0.599976 0 1.29999 0C2 0 2.59998 0.600006 2.59998 1.29999L2.59998 13.7C2.59998 14.4 2 15 1.29999 15L1.29999 15Z" id="Shape" fill="#2B2B2B" stroke="none" />
            </g>
            <g id="Group" transform="translate(19.03433 103.8443)">
              <path d="M1.31769 14.2177C1.11768 14.2177 0.917694 14.2177 0.717682 14.1177C0.117676 13.8177 -0.182312 13.0177 0.117676 12.3177L6.0177 0.717682C6.31769 0.117676 7.11768 -0.182312 7.81769 0.117676C8.41766 0.417664 8.71771 1.21768 8.41766 1.91766L2.51767 13.5177C2.21768 13.9177 1.81769 14.2177 1.31769 14.2177L1.31769 14.2177Z" id="Shape" fill="#2B2B2B" stroke="none" />
            </g>
          </g>
          <path d="M0 106.785C7.89999 83.0851 16.1 59.4851 24.6 35.985C34.1 9.48505 62 -5.01495 88.7 1.58505L98.9 4.18506C114.4 8.08505 322.5 119.185 322.5 119.185L193.5 174.585L58.5 116.385L133.7 84.2851L102.1 155.585L0 106.785L0 106.785Z" transform="translate(134.8983 251.1911)" id="Shape" fill="url(#gradient_3)" stroke="none" />
          <path d="M164 48.7L74.5 250.6L0 217.6C1.29999 211.3 2.70001 205.2 4.10001 199L8.60001 180.6C11.6 168.3 14.8 156.1 18.1 144C24.7 119.7 31.7 95.6 39 71.6C42.7 59.6 46.4 47.6 50.3 35.7L56.1 17.8L62 0" transform="translate(72.89832 358.0761)" id="Shape" fill="#FDC068" stroke="none" />
          <path d="M189.324 25.9C185.624 52.6 152.224 88.8 105.624 82.8L50.5238 81.1C8.02377 75.6 -3.17624 28.8 0.723785 0L189.324 25.9L189.324 25.9Z" transform="translate(271.3746 344.4762)" id="Shape" fill="url(#gradient_4)" stroke="none" />
          <g id="Group" transform="translate(313.7879 23.62276)">
            <g id="Group">
              <g id="Group">
                <path d="M30.8104 135.353L65.6104 141.653C83.6104 144.953 100.81 132.953 104.11 114.953L113.61 62.4534C118.81 33.6534 99.7104 6.05339 70.9104 0.853378L70.9104 0.853378C42.1104 -4.34662 14.5104 14.7534 9.31042 43.5534L0.610413 91.6534C-3.08954 112.053 10.4105 131.653 30.8104 135.353L30.8104 135.353Z" id="SVGID_227_" fill="#FDC068" stroke="none" />
              </g>
              <g id="Group" transform="translate(5.510437 52.95341)">
                <path d="M5.79999 5.5C5.79999 8.7 3.20001 11.4 0 11.5L2.09998 0C4.29999 0.899994 5.79999 3 5.79999 5.5L5.79999 5.5Z" id="Shape" fill="#2B2B2B" stroke="none" />
              </g>
            </g>
            <path d="M19.9282 119.6L66.5281 106.8L75.1281 10.1L19.6281 0L0.128113 102.3C-1.27185 113.5 9.02814 122.6 19.9282 119.6L19.9282 119.6Z" transform="translate(33.18231 81.25342)" id="Shape" fill="#FDC068" stroke="none" />
            <g id="Group" transform="translate(10.09778 58.83327)">
              <path d="M6.71265 19.7202C6.41266 19.7202 6.11267 19.6201 5.81262 19.4201L1.4126 15.6201C0.412598 14.5201 -0.0874023 13.1201 0.0125732 11.6201C0.112549 10.1201 0.812561 8.72015 1.9126 7.82014L10.9126 0.320145C11.5126 -0.179855 12.3126 -0.0798492 12.7126 0.520142C13.2126 1.12015 13.1126 1.92014 12.5126 2.32014L3.51257 9.82014C2.9126 10.3201 2.51257 11.0201 2.51257 11.8201C2.51257 12.5201 2.71259 13.2201 3.21259 13.8201L7.4126 17.5201C7.9126 18.0201 8.01257 18.8201 7.51257 19.3201C7.41266 19.6201 7.11267 19.7202 6.71265 19.7202L6.71265 19.7202Z" id="Shape" fill="#2B2B2B" stroke="none" />
            </g>
            <g id="Group" transform="translate(11.04962 90.4926)">
              <path d="M9.2608 8.56082C8.16083 8.56082 7.16083 8.36082 6.16083 8.06082C1.7608 6.46082 0.160828 1.96082 0.0608521 1.76082C-0.13916 1.06082 0.160828 0.360825 0.86084 0.0608215C1.56085 -0.139175 2.26086 0.160828 2.56085 0.860825C2.56085 0.960831 3.86084 4.46083 7.06085 5.56082C9.36084 6.36082 12.2609 5.76082 15.5609 3.76082C16.1608 3.36082 16.9609 3.56082 17.3608 4.16081C17.7609 4.76082 17.5609 5.56081 16.9608 5.96081C14.1608 7.76082 11.6608 8.56082 9.2608 8.56082L9.2608 8.56082Z" id="Shape" fill="#2B2B2B" stroke="none" />
            </g>
            <path d="M2.19995 0L24.8 4.10001L0 24.8L2.19995 0Z" transform="translate(37.61047 136.9534)" id="Polygon" fill="#2B2B2B" stroke="none" />
            <path d="M0 6C0 2.68629 2.68629 0 6 0C9.31371 0 12 2.68629 12 6C12 9.31371 9.31371 12 6 12C2.68629 12 0 9.31371 0 6Z" transform="translate(33.21045 58.85341)" id="Circle" fill="#2B2B2B" stroke="none" />
          </g>
          <g id="Group" transform="translate(0 546.4398)">
            <path d="M4.09833 13.3364L127.898 71.7364C134.598 74.8364 142.498 71.8364 145.698 65.1364L153.398 48.8364L76.5984 12.7365L8.09833 0.136353C0.0983276 -1.36365 -3.30168 9.93634 4.09833 13.3364L4.09833 13.3364Z" id="Shape" fill="#2B2B2B" stroke="none" />
          </g>
          <path d="M0 61.8L71.8 0L92.6 11.7L19.2 72.9C12.8 63.9 0 61.8 0 61.8L0 61.8Z" transform="translate(342.7983 198.8762)" id="Shape" fill="#FFFFFF" stroke="none" />
          <path d="M24.3 4.10001L17.3 73.1C17.3 73.1 8.89996 72 0 75.4C3.09998 40.7 10.6 0 10.6 0L24.3 4.10001L24.3 4.10001Z" transform="translate(325.5984 187.5762)" id="Shape" fill="#FFFFFF" stroke="none" />
          <path d="M0 26.6102L41.8 34.8102C54.5 37.3102 62.8 49.5102 60.5 62.2102L59.4 68.2102L73.9 72.0102L83.3 116.41C84.2001 120.61 90.2001 120.41 90.8001 116.11L100.3 48.6102C103.2 28.1102 89.3 9.01024 68.9 5.21025L43.7 0.610245C24.7 -2.78976 6 8.31024 0 26.6102L0 26.6102L0 26.6102Z" transform="translate(330.4983 21.06594)" id="Shape" fill="#5D5D5D" stroke="none" />
          <path d="M13.6 37.4872L0 33.8872L6.79999 8.28716C8.39996 2.28716 14.5 -1.21284 20.5 0.387161L23.3 1.08716C29.3 2.68716 32.8 8.78716 31.2 14.7872L27.3 29.5872C25.7 35.4872 19.6 39.0872 13.6 37.4872L13.6 37.4872Z" transform="translate(392.2984 79.28901)" id="Shape" fill="#FDC068" stroke="none" />
          <g id="Group" transform="translate(243.6825 363.5603)">
            <path d="M1.31586 26.3159C1.11584 26.3159 0.915863 26.3159 0.815857 26.2159C0.115845 25.9159 -0.184143 25.1159 0.115845 24.5159L10.6158 0.815857C10.9158 0.115845 11.7159 -0.184143 12.3159 0.115845C13.0159 0.415833 13.3159 1.21585 13.0159 1.81586L2.51587 25.5159C2.31586 26.0159 1.81586 26.3159 1.31586 26.3159L1.31586 26.3159Z" id="Shape" fill="#2B2B2B" stroke="none" />
          </g>
          <path d="M60.1 0L99.5 53.2L100.7 54.8C102.5 57.2 103.8 59.9 104.6 62.5L152.8 221.5C157.3 236.2 149 251.7 134.3 256.1C120.8 260.2 106.6 253.5 100.9 240.9L32.5 89.4L37.6 98.8L0 48L60.1 0L60.1 0Z" transform="translate(432.8983 292.4762)" id="Shape" fill="#FDC068" stroke="none" />
          <g id="Group" transform="translate(464.0825 372.1603)">
            <path d="M1.31586 11.2159C1.11584 11.2159 1.01587 11.2159 0.815857 11.1159C0.115845 10.8159 -0.184143 10.1159 0.115845 9.41586L3.61584 0.815857C3.91583 0.115845 4.61584 -0.184143 5.31586 0.115845C6.01587 0.415832 6.31586 1.11584 6.01587 1.81586L2.51587 10.4159C2.31586 10.9159 1.81586 11.2159 1.31586 11.2159L1.31586 11.2159Z" id="Shape" fill="#2B2B2B" stroke="none" />
          </g>
          <g id="Group" transform="translate(203.3874 137.3652)">
            <path d="M2.41095 16.9109C1.71094 16.9109 1.21094 16.4109 1.11096 15.7109L0.0109558 1.41095C-0.0890503 0.710938 0.510956 0.110962 1.21097 0.0109558C1.91098 -0.0890503 2.51096 0.510956 2.61096 1.21097L3.71097 15.511C3.81097 16.211 3.21097 16.8109 2.51096 16.9109L2.41095 16.9109L2.41095 16.9109Z" id="Shape" fill="#2B2B2B" stroke="none" />
          </g>
          <path d="M29.9786 50.3762L14.9786 47.3762C2.97864 44.9762 -3.42139 31.8762 1.87866 20.9762L6.97864 10.4762C10.9786 2.17619 20.4786 -1.92381 29.2786 0.87619L29.2786 0.87619C33.4786 2.17619 37.0786 4.8762 39.3786 8.57619L42.0786 12.7762C44.9786 17.2762 49.5786 20.2762 54.8786 21.0762L56.3786 21.2762L29.9786 50.3762L29.9786 50.3762Z" transform="translate(314.0197 0)" id="Shape" fill="#5D5D5D" stroke="none" />
        </g>
        <g id="Group" transform="translate(488.1701 172.6266)">
          <path d="M36.2496 6.14963L36.2496 6.14963C38.6496 11.4496 36.3496 17.7496 31.0496 20.2496L15.0496 27.5496C9.74957 29.9496 3.44959 27.6496 0.949585 22.3496L0.949585 22.3496C-1.45044 17.0496 0.849609 10.7496 6.1496 8.2496L22.1496 0.949615C27.4496 -1.45038 33.7496 0.849609 36.2496 6.14963L36.2496 6.14963Z" transform="translate(18.48035 0)" id="Shape" fill="#6AC69F" stroke="none" />
          <path d="M30.6626 30.4626L30.6626 30.4626C26.5626 34.6626 19.8626 34.6626 15.6626 30.5626L3.1626 18.1626C-1.03741 14.0626 -1.03741 7.36264 3.06262 3.16263L3.06262 3.16263C7.1626 -1.03738 13.8626 -1.03738 18.0626 3.06262L30.5626 15.4626C34.6626 19.6626 34.7626 26.3626 30.6626 30.4626L30.6626 30.4626Z" transform="translate(32.36731 17.78699)" id="Shape" fill="#6AC69F" stroke="none" />
          <path d="M26.8386 33.7386L26.8386 33.7386C22.0386 37.1385 15.4385 35.9386 12.0386 31.1385L1.9386 16.7386C-1.46143 11.9386 -0.261414 5.33856 4.53857 1.93857L4.53857 1.93857C9.33856 -1.46143 15.9386 -0.261444 19.3386 4.53857L29.4385 18.9386C32.8386 23.7386 31.6385 30.3385 26.8386 33.7386L26.8386 33.7386Z" transform="translate(18.89136 9.911072)" id="Shape" fill="#6AC69F" stroke="none" />
          <path d="M5.59076 35.4908L5.59076 35.4908C0.390747 32.6908 -1.50922 26.2907 1.29077 21.0908L9.6908 5.59076C12.4908 0.390747 18.8908 -1.50925 24.0908 1.29077L24.0908 1.29077C29.2908 4.09076 31.1908 10.4908 28.3908 15.6908L19.9908 31.1908C17.1907 36.3907 10.6907 38.2907 5.59076 35.4908L5.59076 35.4908Z" transform="translate(19.83917 52.15887)" id="Shape" fill="#6AC69F" stroke="none" />
          <path d="M26.8386 33.7386L26.8386 33.7386C22.0386 37.1385 15.4385 35.9386 12.0386 31.1385L1.9386 16.7386C-1.46143 11.9386 -0.261414 5.33856 4.53857 1.93857L4.53857 1.93857C9.33856 -1.46143 15.9386 -0.261444 19.3386 4.53857L29.4385 18.9386C32.8386 23.7386 31.6385 30.4386 26.8386 33.7386L26.8386 33.7386Z" transform="translate(33.49133 42.51105)" id="Shape" fill="#6AC69F" stroke="none" />
          <path d="M3.47614 31.5762L3.47614 31.5762C-0.823852 27.6762 -1.22388 20.9762 2.77612 16.5762L14.5761 3.47617C18.4761 -0.823822 25.1761 -1.22385 29.5761 2.77615L29.5761 2.77615C33.8761 6.67615 34.2761 13.3762 30.2761 17.7762L18.4761 30.8762C14.4761 35.1762 7.77612 35.5762 3.47614 31.5762L3.47614 31.5762Z" transform="translate(11.35376 77.37344)" id="Shape" fill="#6AC69F" stroke="none" />
          <path d="M22.8297 36.1297L22.8297 36.1297C17.5297 38.6297 11.2297 36.4297 8.62964 31.1297L1.02966 15.2297C-1.47034 9.92972 0.729675 3.6297 6.02966 1.02969L6.02966 1.02969C11.3297 -1.47031 17.6296 0.729706 20.2297 6.02969L27.8297 21.9297C30.3296 27.2297 28.1296 33.5297 22.8297 36.1297L22.8297 36.1297Z" transform="translate(31.40027 67.31992)" id="Shape" fill="#6AC69F" stroke="none" />
          <path d="M14.2778 38.6778L14.2778 38.6778C8.47784 39.3778 3.17786 35.2778 2.37781 29.4778L0.0778198 11.9778C-0.622192 6.17783 3.47784 0.877808 9.27783 0.0778198L9.27783 0.0778198C15.0778 -0.622192 20.3778 3.47781 21.1779 9.27783L23.4778 26.7778C24.1779 32.6778 20.0779 37.9778 14.2778 38.6778L14.2778 38.6778Z" transform="translate(23.35205 95.4718)" id="Shape" fill="#6AC69F" stroke="none" />
          <path d="M4.62988 33.9299L4.62988 33.9299C-0.170105 30.6299 -1.47009 24.0299 1.8299 19.2299L11.7299 4.62988C15.0299 -0.170105 21.6299 -1.47012 26.4299 1.8299L26.4299 1.8299C31.2299 5.12988 32.5299 11.7299 29.2299 16.5299L19.3299 31.1299C16.1299 36.0299 9.52991 37.2299 4.62988 33.9299L4.62988 33.9299Z" transform="translate(0 109.8197)" id="Shape" fill="#6AC69F" stroke="none" />
          <path d="M6.89838 37.0984L6.89838 37.0984C1.39838 34.9984 -1.40161 28.8984 0.698364 23.3984L6.89838 6.89838C8.99835 1.39838 15.0984 -1.40161 20.5984 0.698364L20.5984 0.698364C26.0984 2.79837 28.8984 8.89838 26.7984 14.3984L20.5984 30.8984C18.4984 36.3984 12.2984 39.1984 6.89838 37.0984L6.89838 37.0984Z" transform="translate(13.63153 29.85123)" id="Shape" fill="#6AC69F" stroke="none" />
          <g id="Group" transform="translate(38.21222 18.93195)">
            <path d="M1.31769 7.11768C0.817688 7.11768 0.317688 6.81769 0.117676 6.31769C-0.182312 5.61768 0.117676 4.91769 0.717651 4.61768L10.6177 0.117676C11.3177 -0.182312 12.0177 0.117676 12.3177 0.717682C12.6177 1.31769 12.3177 2.11768 11.7177 2.41769L1.81769 7.01767C1.71771 7.11768 1.5177 7.11768 1.31769 7.11768L1.31769 7.11768Z" id="Shape" fill="#2B2B2B" stroke="none" />
          </g>
          <g id="Group" transform="translate(22.82178 51.34152)">
            <path d="M1.30811 17.6081C1.10809 17.6081 0.808105 17.5081 0.608093 17.4081C0.00811768 17.0081 -0.191895 16.2081 0.208069 15.6081L9.60809 0.608093C10.0081 0.00808716 10.8081 -0.191895 11.4081 0.208099C12.0081 0.608093 12.2081 1.40811 11.8081 2.00809L2.40808 17.0081C2.20813 17.4081 1.70813 17.6081 1.30811 17.6081L1.30811 17.6081Z" id="Shape" fill="#2B2B2B" stroke="none" />
          </g>
          <g id="Group" transform="translate(38.41473 82.03439)">
            <path d="M4.81519 20.2152C4.21521 20.2152 3.61517 19.8152 3.5152 19.1152L0.0151978 1.5152C-0.0847778 0.815185 0.315186 0.115204 1.0152 0.0151978C1.71521 -0.0848083 2.41522 0.315186 2.5152 1.0152L6.0152 18.6152C6.11517 19.3152 5.71521 20.0152 5.0152 20.1152C5.0152 20.2152 4.91516 20.2152 4.81519 20.2152L4.81519 20.2152Z" id="Shape" fill="#2B2B2B" stroke="none" />
          </g>
          <g id="Group" transform="translate(22.42993 102.3496)">
            <path d="M2 13.9C1.29999 13.9 0.700012 13.4 0.700012 12.7L0 1.39999C0 0.699982 0.5 0.100006 1.20001 0C1.90002 0 2.5 0.5 2.60004 1.20001L3.30005 12.5C3.29999 13.2 2.79999 13.9 2 13.9C2.09998 13.9 2 13.9 2 13.9L2 13.9Z" id="Shape" fill="#2B2B2B" stroke="none" />
          </g>
        </g>
      </g>
      <path d="M0 193.009C76.1 193.009 110.8 81.4093 200.4 92.3093C227.3 95.6093 257.3 40.4092 269.6 19.6093C290 -14.8907 344 -0.990723 344 38.9092L344 193.009L0 193.009L0 193.009Z" transform="translate(615 617.4907)" id="Shape" fill="url(#gradient_5)" stroke="none" />
      <g id="Group" transform="translate(0 49.00006)">
        <path d="M1.56335 39.5C1.06335 36.8 -3.53662 12.8 5.86334 0L13.9633 5.89999C8.26331 13.8 10.1633 31.4 11.4633 37.6L1.56335 39.5L1.56335 39.5Z" transform="translate(787.8367 249.9)" id="Shape" fill="#E8E993" stroke="none" />
        <path d="M0.801315 39.3C0.401321 36.6 -2.79869 12.4 7.20131 0L15.0013 6.29999C8.80132 13.9 9.80132 31.6 10.8013 37.8L0.801315 39.3L0.801315 39.3Z" transform="translate(115.5987 411.4)" id="Shape" fill="#A4E9B8" stroke="none" />
        <path d="M2.44724 30.1C-3.75278 15.1 3.74722 0.600006 4.04724 0L12.8472 4.7L8.44724 2.39999L12.8472 4.7C12.7472 4.8 7.24722 15.7 11.6472 26.3L2.44724 30.1L2.44724 30.1Z" transform="translate(318.4528 20.99997)" id="Shape" fill="#E8928A" stroke="none" />
        <path d="M13.1 29.6L3.5 26.9L8.3 28.3L3.5 27C3.5 26.9 6.60001 15.1 0 5.70001L8.2 0C17.5 13.2 13.3 28.9 13.1 29.6L13.1 29.6Z" transform="translate(172.5 197.8)" id="Shape" fill="#98C2FE" stroke="none" />
        <path d="M7.20001 28.5L0 21.6L3.59998 25.1L0 21.6C0.0999756 21.5 8.40002 12.6 7.09998 1.09998L17 0C18.8 16.2 7.70001 28 7.20001 28.5L7.20001 28.5Z" transform="translate(738.6 413.9999)" id="Shape" fill="#98C2FE" stroke="none" />
        <path d="M7.20001 28.5L0 21.6L3.59998 25.1L0 21.6C0.0999756 21.5 8.40002 12.6 7.09998 1.10001L17 0C18.8 16.2 7.70001 28 7.20001 28.5L7.20001 28.5Z" transform="translate(828 124.7)" id="Shape" fill="#98C2FE" stroke="none" />
        <path d="M11.9 30L2.40002 26.8L7.10004 28.4L2.40002 26.8C2.40002 26.7 6.10004 15.1 0 5.3L8.5 0C17.2 13.9 12.2 29.3 11.9 30L11.9 30Z" transform="translate(654 75.59998)" id="Shape" fill="#C492D6" stroke="none" />
        <path d="M13.225 0.75L13.625 1.75C15.125 5.64999 18.325 8.85001 22.225 10.35L23.225 10.75C24.3249 11.15 24.3249 12.75 23.225 13.15L22.225 13.55C18.325 15.05 15.125 18.25 13.625 22.15L13.225 23.15C12.825 24.25 11.225 24.25 10.825 23.15L10.4249 22.15C8.92493 18.25 5.72491 15.05 1.82495 13.55L0.824951 13.15C-0.275024 12.75 -0.275024 11.15 0.824951 10.75L1.82495 10.35C5.72498 8.85001 8.92493 5.65001 10.4249 1.75L10.825 0.75C11.225 -0.25 12.725 -0.25 13.225 0.75L13.225 0.75Z" transform="translate(699.975 91.74998)" id="Shape" fill="#FDE545" stroke="none" />
        <path d="M13.225 0.824997L13.625 1.825C15.125 5.72499 18.325 8.925 22.225 10.425L23.225 10.825C24.325 11.225 24.325 12.825 23.225 13.225L22.225 13.625C18.325 15.125 15.125 18.325 13.625 22.225L13.225 23.225C12.825 24.325 11.225 24.325 10.825 23.225L10.425 22.225C8.92502 18.325 5.72501 15.125 1.82501 13.625L0.825012 13.225C-0.274994 12.825 -0.274994 11.225 0.825012 10.825L1.82501 10.425C5.72501 8.925 8.92502 5.72501 10.425 1.825L10.825 0.824997C11.325 -0.275002 12.825 -0.275002 13.225 0.824997L13.225 0.824997Z" transform="translate(362.075 1.574982)" id="Shape" fill="#FDE545" stroke="none" />
        <path d="M13.225 0.825012L13.625 1.82501C15.125 5.72501 18.325 8.92502 22.225 10.425L23.225 10.825C24.325 11.225 24.325 12.825 23.225 13.225L22.225 13.625C18.325 15.125 15.125 18.325 13.625 22.225L13.225 23.225C12.825 24.325 11.225 24.325 10.825 23.225L10.425 22.225C8.92502 18.325 5.72502 15.125 1.82501 13.625L0.825012 13.225C-0.274994 12.825 -0.274994 11.225 0.825012 10.825L1.82501 10.425C5.72501 8.92502 8.92502 5.72501 10.425 1.82501L10.825 0.825012C11.225 -0.274994 12.825 -0.274994 13.225 0.825012L13.225 0.825012Z" transform="translate(163.675 325.275)" id="Shape" fill="#FDE545" stroke="none" />
        <path d="M98.8 160.6C94.8 144.1 76.2 119.6 56.5 93.6C34.5 64.7 9.7 31.9 0 3.2L9.5 0C18.6 27.1 43 59.2 64.4 87.6C85.6 115.6 103.9 139.7 108.5 158.2L98.8 160.6L98.8 160.6Z" id="Shape" fill="#F9D5FF" stroke="none" />
        <path d="M9.29999 106.9L0 103.3C8.5 80.9 26.3 67.2 45.1 52.7C63.5 38.5 82.5 23.8 92.6 0L101.8 3.89999C90.7 30.1 70.6 45.6 51.2 60.6C33.4999 74.3 16.8 87.1 9.29999 106.9L9.29999 106.9Z" transform="translate(790.7001 270.4)" id="Shape" fill="#F9D5FF" stroke="none" />
      </g>
    </g>
  </g>
</svg>