<?xml version="1.0" encoding="utf-8"?>
<svg width="800px" height="784px" viewBox="0 0 800 784" version="1.1" xmlns:xlink="http://www.w3.org/1999/xlink" xmlns="http://www.w3.org/2000/svg">
  <desc>Created with Lunacy</desc>
  <defs>
    <linearGradient x1="0.315659642" y1="0.2431016" x2="0.7897277" y2="0.995321751" id="gradient_1">
      <stop offset="0" stop-color="#C0DDFC" />
      <stop offset="0.19" stop-color="#D3E7FD" />
      <stop offset="0.49" stop-color="#EBF4FE" />
      <stop offset="0.77" stop-color="#FAFCFF" />
      <stop offset="1" stop-color="#FFFFFF" />
    </linearGradient>
    <linearGradient x1="0.4999202" y1="0.854778051" x2="0.4999202" y2="0.192801" id="gradient_2">
      <stop offset="0" stop-color="#F8809A" />
      <stop offset="1" stop-color="#FFD02D" />
    </linearGradient>
    <linearGradient x1="0.499795675" y1="1.05760622" x2="0.499795675" y2="0.008255005" id="gradient_3">
      <stop offset="0" stop-color="#F9D5FF" />
      <stop offset="0.17" stop-color="#F9D5FC" />
      <stop offset="0.32" stop-color="#F9D5F1" />
      <stop offset="0.45" stop-color="#FAD6E0" />
      <stop offset="0.58" stop-color="#FBD7C7" />
      <stop offset="0.71" stop-color="#FCD8A7" />
      <stop offset="0.83" stop-color="#FDD97F" />
      <stop offset="0.95" stop-color="#FEDA52" />
      <stop offset="1" stop-color="#FFDB40" />
    </linearGradient>
    <linearGradient x1="0.8167536" y1="0.398139954" x2="0.006629467" y2="0.5529175" id="gradient_4">
      <stop offset="0" stop-color="#B8A7D3" />
      <stop offset="0.4" stop-color="#ED4861" />
      <stop offset="0.5" stop-color="#F4837D" />
      <stop offset="0.59" stop-color="#FECEAA" />
      <stop offset="1" stop-color="#B7D5EA" />
    </linearGradient>
    <linearGradient x1="0.499686241" y1="0.0303668976" x2="0.499686241" y2="1.996419" id="gradient_5">
      <stop offset="0" stop-color="#B8A7D3" />
      <stop offset="0.4" stop-color="#ED4861" />
      <stop offset="0.5" stop-color="#F4837D" />
      <stop offset="0.59" stop-color="#FECEAA" />
      <stop offset="1" stop-color="#B7D5EA" />
    </linearGradient>
    <linearGradient x1="0.3546729" y1="0.9925749" x2="0.6615794" y2="-0.0122836027" id="gradient_6">
      <stop offset="0" stop-color="#EA979A" />
      <stop offset="0.41" stop-color="#F2D38B" />
      <stop offset="0.5" stop-color="#7E9DAE" />
      <stop offset="0.6" stop-color="#90979D" />
      <stop offset="1" stop-color="#7EBDDB" />
    </linearGradient>
    <linearGradient x1="0.499603271" y1="1.02644157" x2="0.499603271" y2="-0.0336027145" id="gradient_7">
      <stop offset="0" stop-color="#EA979A" />
      <stop offset="0.41" stop-color="#F2D38B" />
      <stop offset="0.5" stop-color="#7E9DAE" />
      <stop offset="0.6" stop-color="#90979D" />
      <stop offset="1" stop-color="#7EBDDB" />
    </linearGradient>
    <linearGradient x1="0.4998989" y1="8.408749" x2="0.4998989" y2="0.2926712" id="gradient_8">
      <stop offset="0" stop-color="#EA979A" />
      <stop offset="0.41" stop-color="#F2D38B" />
      <stop offset="0.5" stop-color="#7E9DAE" />
      <stop offset="0.6" stop-color="#90979D" />
      <stop offset="1" stop-color="#7EBDDB" />
    </linearGradient>
    <linearGradient x1="0.499319077" y1="3.241107" x2="0.499319077" y2="0.008069038" id="gradient_9">
      <stop offset="0" stop-color="#F9D5FF" />
      <stop offset="0.17" stop-color="#F9D5FC" />
      <stop offset="0.32" stop-color="#F9D5F1" />
      <stop offset="0.45" stop-color="#FAD6E0" />
      <stop offset="0.58" stop-color="#FBD7C7" />
      <stop offset="0.71" stop-color="#FCD8A7" />
      <stop offset="0.83" stop-color="#FDD97F" />
      <stop offset="0.95" stop-color="#FEDA52" />
      <stop offset="1" stop-color="#FFDB40" />
    </linearGradient>
    <linearGradient x1="0.499477863" y1="-0.007461548" x2="0.499477863" y2="0.98492527" id="gradient_10">
      <stop offset="0" stop-color="#B8A7D3" />
      <stop offset="0.4" stop-color="#ED4861" />
      <stop offset="0.5" stop-color="#F4837D" />
      <stop offset="0.59" stop-color="#FECEAA" />
      <stop offset="1" stop-color="#B7D5EA" />
    </linearGradient>
    <linearGradient x1="0.500210762" y1="0.07403946" x2="0.500210762" y2="0.97073555" id="gradient_11">
      <stop offset="0" stop-color="#FFEFA1" />
      <stop offset="1" stop-color="#FFFFFF" />
    </linearGradient>
    <rect width="800" height="784" id="artboard_1" />
    <clipPath id="clip_1">
      <use xlink:href="#artboard_1" clip-rule="evenodd" />
    </clipPath>
  </defs>
  <g id="Custom-size" clip-path="url(#clip_1)">
    <use xlink:href="#artboard_1" stroke="none" fill="#FFFFFF" fill-opacity="0" />
    <g id="marginalia-design-process" transform="translate(96.70038 -49.5)">
      <g id="Group">
        <path d="M0 0L1017.8 0L1017.8 994.263L0 994.263L0 0Z" id="Rectangle" fill="none" stroke="none" />
        <g id="Group" transform="translate(69.7193 71.50044)" opacity="0.3">
          <path d="M0 0L878.361 0L878.361 746.175L0 746.175L0 0ZM875.562 743.248L875.562 2.79896L2.79893 2.79899L2.79893 743.248L875.562 743.248Z" id="Shape" fill="#C4ECFE" fill-rule="evenodd" stroke="none" />
          <g id="Group" transform="translate(212.5929 0)">
            <path d="M0 0L2.67172 0L2.67172 746.175L0 746.175L0 0Z" id="Rectangle" fill="#C4ECFE" stroke="none" />
          </g>
          <g id="Group" transform="translate(324.2964 0)">
            <path d="M0 0L2.67172 0L2.67172 746.175L0 746.175L0 0Z" id="Rectangle" fill="#C4ECFE" stroke="none" />
          </g>
          <g id="Group" transform="translate(212.5929 0)">
            <path d="M0 0L2.67172 0L2.67172 746.175L0 746.175L0 0Z" id="Rectangle" fill="#C4ECFE" stroke="none" />
          </g>
          <g id="Group" transform="translate(100.7622 0)">
            <path d="M0 0L2.67173 0L2.67173 746.175L0 746.175L0 0Z" id="Rectangle" fill="#C4ECFE" stroke="none" />
          </g>
          <g id="Group" transform="translate(435.9999 0)">
            <path d="M0 0L2.67172 0L2.67172 746.175L0 746.175L0 0Z" id="Rectangle" fill="#C4ECFE" stroke="none" />
          </g>
          <g id="Group" transform="translate(547.7034 0)">
            <path d="M0 0L2.67175 0L2.67175 746.175L0 746.175L0 0Z" id="Rectangle" fill="#C4ECFE" stroke="none" />
          </g>
        </g>
        <path d="M0 3.81674C0 1.70881 1.70881 0 3.81674 0C5.92467 0 7.63348 1.70881 7.63348 3.81674C7.63348 5.92467 5.92467 7.63348 3.81674 7.63348C1.70881 7.63348 0 5.92467 0 3.81674Z" transform="translate(206.2317 159.1584)" id="Circle" fill="#BFD9FF" stroke="none" />
        <path d="M0 3.81675C0 1.70882 1.70881 0 3.81674 0C5.92467 0 7.63348 1.70882 7.63348 3.81675C7.63348 5.92469 5.92467 7.63351 3.81674 7.63351C1.70881 7.63351 0 5.92469 0 3.81675Z" transform="translate(559.2809 91.34751)" id="Circle" fill="#BFD9FF" stroke="none" />
        <path d="M0 3.43503C0 1.53791 1.53793 0 3.43507 0C5.33221 0 6.87015 1.53791 6.87015 3.43503C6.87015 5.33214 5.33221 6.87006 3.43507 6.87006C1.53793 6.87006 0 5.33214 0 3.43503Z" transform="translate(337.1461 599.6111)" id="Circle" fill="#BFD9FF" stroke="none" />
        <path d="M0 297.377C58.778 293.56 78.1161 213.027 112.467 181.348C146.818 149.541 220.863 172.315 237.02 85.6745C247.834 27.7872 296.053 25.2427 336.129 3.86889C358.011 -7.70859 384.474 8.0673 384.474 33.0034L384.474 297.377L0 297.377L0 297.377Z" transform="translate(563.9882 520.1707)" id="Shape" fill="url(#gradient_1)" stroke="none" />
        <path d="M0 0L703.045 0L703.045 4.07111L0 4.07111L0 0Z" transform="translate(171.7537 813.4765)" id="Rectangle" fill="#2B2B2B" stroke="none" />
        <path d="M288.541 43.7697C295.539 53.8205 301.009 65.6524 304.826 79.3927C309.279 95.4231 310.933 114.507 309.534 136.644C309.279 140.079 309.025 143.641 308.643 147.204L272.129 522.136C269.458 548.726 263.733 571.244 254.954 589.946C246.176 608.649 235.107 623.788 221.748 635.62C208.517 647.325 192.996 656.104 176.202 661.32C158.899 666.79 140.579 669.462 122.386 669.335C103.556 669.335 85.9994 666.663 70.0963 661.32C54.7021 656.231 40.8345 647.452 29.6387 635.62C18.5702 623.788 10.4278 608.649 5.21155 589.946C-0.00467853 571.372 -1.27693 548.726 1.26757 522.136L37.7811 147.204C40.4529 120.614 46.178 98.0948 54.9565 79.3927C63.8622 60.6906 74.9308 45.5509 88.2894 33.719C101.521 22.0143 117.042 13.2357 133.836 8.01952C151.139 2.54884 169.459 -0.122884 187.652 0.0043388C206.481 0.0043388 224.038 2.67607 239.942 8.01952C255.336 13.1085 269.203 21.887 280.399 33.719C283.325 36.8996 285.997 40.3346 288.541 43.7697ZM193.886 522.263L230.272 147.076C232.944 119.087 230.272 98.9854 222.257 86.7718C214.115 74.431 200.375 68.3242 181.164 68.3242C161.953 68.3242 147.195 74.5582 136.762 86.7718C126.457 98.9854 119.968 119.087 117.169 147.076L80.6559 522.263C77.9841 550.125 80.5286 570.354 88.5438 582.567C96.559 594.908 110.172 601.015 129.383 601.015C148.594 601.015 163.479 594.781 174.039 582.567C184.471 570.354 191.214 550.252 193.886 522.263Z" transform="translate(198.8573 148.2128)" id="Shape" fill="url(#gradient_2)" fill-rule="evenodd" stroke="none" />
        <path d="M72.8078 114.63C72.8078 114.63 24.5896 61.9586 9.83144 47.9638C-4.92667 33.9691 1.30735 0 1.30735 0L51.8157 21.7555C58.8131 31.8062 64.2837 43.6382 68.1005 57.3785C72.5534 73.536 74.2073 92.6198 72.8078 114.63L72.8078 114.63Z" transform="translate(435.5831 170.0998)" id="Shape" fill="#2B2B2B" stroke="none" />
        <g id="Group" transform="translate(377.3492 133.459)">
          <path d="M0 0L24.1727 0L24.1727 24.1727L0 24.1727L0 0Z" transform="translate(1.399483 1.272247)" id="Rectangle" fill="#FFFFFF" stroke="none" />
          <path d="M0 26.8445L26.8444 26.8445L26.8444 0L0 0L0 26.8445ZM24.1727 24.0455L2.79893 24.0455L2.79893 2.79895L24.1727 2.79895L24.1727 24.0455Z" id="Shape" fill="#2B2B2B" fill-rule="evenodd" stroke="none" />
        </g>
        <path d="M31.3293 314.817C18.8612 276.268 35.7821 271.688 9.82821 232.375C-16.2529 192.935 17.9706 122.326 16.6984 82.6314C16.1895 69.4 8.1743 48.0262 5.6298 28.5608C2.70365 4.26082 32.4742 -9.73393 49.2679 7.95034C54.8659 14.0571 59.7004 20.8001 63.3899 28.0519C64.9166 30.8508 66.9522 33.5226 69.4967 35.5582C77.3846 42.1739 85.527 48.6623 96.5956 58.077C135.018 90.2649 117.079 138.483 132.346 166.473C147.613 194.462 214.024 195.607 240.105 257.82C296.593 392.297 85.9087 484.153 31.3293 314.817L31.3293 314.817Z" transform="translate(647.9248 80.47103)" id="Shape" fill="url(#gradient_3)" stroke="none" />
        <path d="M62.666 15.9588L37.3483 2.85459C24.8802 -3.63388 9.35877 1.3279 2.87029 13.7959C-2.85484 24.8645 0.198556 38.4776 10.1221 45.9839L25.2619 57.4341L62.666 15.9588L62.666 15.9588Z" transform="translate(436.9464 149.6881)" id="Shape" fill="#EA7068" stroke="none" />
        <path d="M0 41.4754L79.5156 116.665C83.8413 118.192 88.2941 118.828 93.0015 118.955L199.489 101.653C218.7 98.2177 231.677 79.8973 228.242 60.5591C224.934 41.7298 207.122 29.0073 188.166 31.8062L92.1108 47.9638L37.2769 0L0 41.4754L0 41.4754Z" transform="translate(462.2082 165.7741)" id="Shape" fill="url(#gradient_4)" stroke="none" />
        <path d="M133.077 123.653L0 110.803C4.07121 75.1804 28.3712 79.506 21.6282 54.5699C16.1576 34.0867 24.9361 8.64173 43.3837 1.77157C47.7094 0.244875 52.2895 -0.391249 56.8695 0.244875C77.9889 2.66214 79.5156 1.8988 88.4213 2.91661C91.2203 3.17105 94.0192 3.80718 96.6909 4.69775C119.591 12.3313 131.551 39.5574 121.627 62.8396C119.719 67.2924 118.446 71.9998 118.065 76.7071C117.301 85.1039 135.876 99.0987 133.077 123.653L133.077 123.653Z" transform="translate(609.0259 196.445)" id="Shape" fill="url(#gradient_5)" stroke="none" />
        <path d="M58.5236 13.2218C58.5236 26.8349 45.4194 37.7762 29.2618 37.7762C13.1042 37.7762 0 26.7077 0 13.2218C0 9.15063 1.14502 5.07943 3.43509 1.77157C7.76078 0.244875 12.3409 -0.391249 16.9209 0.244875C38.0403 2.66214 39.567 1.8988 48.4727 2.91661C51.2717 3.17105 54.0707 3.80718 56.7424 4.69775C57.8874 7.36948 58.5236 10.2957 58.5236 13.2218L58.5236 13.2218Z" transform="translate(648.9745 196.5722)" id="Shape" fill="#FFFFFF" stroke="none" />
        <path d="M58.5236 13.2218C58.5236 26.8349 45.4194 37.7762 29.2618 37.7762C13.1042 37.7762 0 26.7077 0 13.2218C0 9.15063 1.14502 5.07943 3.43509 1.77157C7.76078 0.244875 12.3409 -0.391249 16.9209 0.244875C38.0403 2.66214 39.567 1.8988 48.4727 2.91661C51.2717 3.17105 54.0707 3.80718 56.7424 4.69775C57.8874 7.36948 58.5236 10.2957 58.5236 13.2218L58.5236 13.2218Z" transform="translate(648.9745 196.5722)" id="Shape" fill="#FFFFFF" stroke="none" />
        <path d="M0 15.5214L108.141 29.7706L110.177 14.2492L2.03557 0L0 15.5214Z" transform="translate(607.7535 289.4368)" id="Polygon" fill="#FFFFFF" stroke="none" />
        <path d="M114.252 0C91.7327 52.1622 75.0663 105.724 54.4558 158.395C29.9014 220.862 -0.378126 462.335 0.00357199 480.147L67.9417 479.638L138.806 226.715L137.661 230.532L210.688 31.4246C211.197 29.6434 123.285 3.30784 114.252 0L114.252 0L114.252 0Z" transform="translate(497.0644 313.9912)" id="Shape" fill="url(#gradient_6)" stroke="none" />
        <path d="M0.544534 6.61575L0.417301 9.79637L0.290069 12.977L0.162836 19.3382L0.0356034 32.0607C-0.0916293 36.2591 0.162836 40.5848 0.162836 44.7832L0.417301 57.5057C0.926193 74.4266 1.94398 91.3476 3.21623 108.141C4.36128 124.935 6.14238 141.856 8.05076 158.65C9.83193 175.443 12.2492 192.11 14.5392 209.031L15.557 215.901C16.0659 218.954 16.9564 221.88 18.2287 224.679C23.4449 235.239 37.1852 263.228 44.5642 277.478L51.4344 290.709L58.4318 303.94C63.0118 312.719 67.9736 321.497 72.5537 330.403C82.2228 347.833 93.9275 371.879 104.233 389.054C114.538 406.229 125.098 423.532 136.421 440.326L200.542 415.135L111.612 187.148L115.047 202.288L86.0396 0L0.544534 6.61575L0.544534 6.61575Z" transform="translate(650.2111 336.2555)" id="Shape" fill="url(#gradient_7)" stroke="none" />
        <path d="M133.103 15.0125C130.94 33.8418 108.167 59.7958 75.3429 56.3607L48.8801 52.7984C18.9823 49.6178 -2.00983 20.356 0.153013 0L133.103 15.0125L133.103 15.0125Z" transform="translate(609.0001 305.0855)" id="Shape" fill="url(#gradient_8)" stroke="none" />
        <path d="M46.6349 175.825L72.4615 143.891C80.9856 138.039 85.4385 127.988 84.2934 117.81L78.8228 37.4041L39.383 0L59.2301 65.7753L4.65057 144.4C-0.692888 152.161 -1.45621 162.085 2.48773 170.609L2.48773 170.609C8.59451 183.713 24.3704 189.438 37.4746 183.204C41.0369 181.423 44.2176 179.006 46.6349 175.825L46.6349 175.825Z" transform="translate(663.5349 296.0525)" id="Shape" fill="#2B2B2B" stroke="none" />
        <path d="M24.8461 97.1317L49.6549 98.6584C62.5046 99.4218 73.446 89.6254 74.2093 76.9029L76.3721 39.4988C77.5172 19.0156 61.8685 1.33128 41.3853 0.0590349L41.3853 0.0590349C20.9021 -1.08599 3.21786 14.5627 2.07284 35.0459L2.07284 35.0459L0.0372341 69.2694C-0.726123 83.7731 10.3424 96.3684 24.8461 97.1317L24.8461 97.1317Z" transform="translate(631.8892 78.69319)" id="Shape" fill="#EA7068" stroke="none" />
        <path d="M76.3722 39.4397L74.2094 76.8439C73.446 89.6936 62.3775 99.3627 49.655 98.5994L24.8461 97.0727C10.3425 96.1821 -0.726123 83.714 0.0372341 69.2104L1.18225 49.745L1.69114 41.6026L2.0728 34.9869L2.0728 34.9869C3.21782 15.1398 19.6298 0 39.2225 0C39.9858 0 40.7492 0 41.3853 0.127223C61.9958 1.39947 77.6445 18.9565 76.3722 39.4397L76.3722 39.4397Z" transform="translate(631.8892 78.62504)" id="Shape" fill="none" stroke="none" />
        <g id="Group" transform="translate(633.1987 120.482)">
          <path d="M3.56238 3.94397C3.56238 6.10679 2.03562 7.76072 0 8.14239L0.508906 0C2.16286 0.254446 3.56238 1.90836 3.56238 3.94397L3.56238 3.94397Z" id="Shape" fill="#2B2B2B" stroke="none" />
        </g>
        <path d="M29.389 21.608L0 4.17818C0 4.17818 20.1016 -0.783586 40.2031 0.106985L29.389 21.608L29.389 21.608Z" transform="translate(635.2342 196.4556)" id="Shape" fill="#2B2B2B" stroke="none" />
        <path d="M14.184 83.0779L46.6263 73.2816L47.5169 2.41728L8.0772 0L0.0620439 71.246C-0.574081 77.3528 3.7516 82.6963 9.85837 83.4596C11.385 83.714 12.7845 83.4596 14.184 83.0779L14.184 83.0779Z" transform="translate(659.4722 136.2579)" id="Shape" fill="#EA7068" stroke="none" />
        <path d="M0 11.323C0 5.06949 5.06949 0 11.323 0C17.5766 0 22.6461 5.06949 22.6461 11.323C22.6461 17.5766 17.5766 22.646 11.323 22.646C5.06949 22.646 0 17.5766 0 11.323Z" transform="translate(616.5321 112.9758)" id="Circle" fill="none" stroke="#F9F179" stroke-width="2.61" stroke-linecap="round" />
        <path d="M6.39563 0L0.797789 5.97957C-0.347218 7.1246 -0.219986 8.90575 0.925021 10.0508L1.05225 10.178L4.36008 12.3408" transform="translate(637.8715 124.2988)" id="Shape" fill="none" stroke="#2B2B2B" stroke-width="2.61" stroke-linecap="round" />
        <path d="M0 0C0 0 3.43509 6.87015 10.6869 1.27225" transform="translate(640.3232 147.0721)" id="Shape" fill="none" stroke="#2B2B2B" stroke-width="2.61" stroke-linecap="round" />
        <path d="M1.78119 0L17.9388 1.0178L0 15.9031L1.78119 0Z" transform="translate(661.3153 176.2066)" id="Polygon" fill="#2B2B2B" stroke="none" />
        <path d="M0 4.19842C0 1.8797 1.87969 0 4.19839 0C6.5171 0 8.39679 1.8797 8.39679 4.19842C8.39679 6.51714 6.5171 8.39684 4.19839 8.39684C1.87969 8.39684 0 6.51714 0 4.19842Z" transform="translate(652.4095 121.8815)" id="Circle" fill="#2B2B2B" stroke="none" />
        <path d="M0 11.323C0 5.06949 5.06949 0 11.323 0C17.5766 0 22.6461 5.06949 22.6461 11.323C22.6461 17.5766 17.5766 22.646 11.323 22.646C5.06949 22.646 0 17.5766 0 11.323Z" transform="translate(646.4301 114.7569)" id="Circle" fill="none" stroke="#F9F179" stroke-width="2.61" stroke-linecap="round" />
        <path d="M5.4026 23.7911L115.325 24.1728C121.05 24.1728 125.757 19.5927 125.885 13.8676L126.266 0L58.3282 0.508932C57.3104 0.508932 56.1653 0.636126 55.2748 0.890592L4.13031 13.3586C-2.10367 14.7582 -0.958653 23.6639 5.4026 23.7911L5.4026 23.7911Z" transform="translate(438.6125 793.7566)" id="Shape" fill="#2B2B2B" stroke="none" />
        <path d="M71.1175 125.922C30.7872 102.767 36.1307 100.731 32.3139 63.2001C29.1333 32.1572 -9.4158 29.8672 2.16163 13.0735C10.304 1.24154 29.006 -4.22913 46.5631 3.78604C63.993 11.8012 76.5882 41.5719 76.9699 62.9456C77.3516 84.3194 71.1175 125.922 71.1175 125.922L71.1175 125.922Z" transform="translate(641.0878 78.27406)" id="Shape" fill="url(#gradient_9)" stroke="none" />
        <g id="Group" transform="translate(639.6677 398.9579)">
          <path d="M17.1948 89.5859C16.5587 89.5859 16.0498 89.077 15.7954 88.4409L0.0194906 1.54621C-0.107742 0.782848 0.40115 0.0194906 1.16451 0.0194906C1.92786 -0.107742 2.69122 0.40115 2.69122 1.16451L18.4671 88.0592C18.5943 88.8225 18.0855 89.5859 17.3221 89.5859C17.3221 89.5859 17.3221 89.5859 17.1948 89.5859L17.1948 89.5859Z" id="Shape" fill="#2B2B2B" stroke="none" />
        </g>
        <g id="Group" transform="translate(608.9304 315.8041)">
          <path d="M7.22003 16.253C6.71113 16.253 6.20224 15.9985 5.94778 15.3624L0.0954341 1.87656C-0.159031 1.1132 0.0954341 0.349861 0.85879 0.0954148C1.62215 -0.159031 2.3855 0.0954148 2.63993 0.858772L8.49227 14.3446C8.74674 15.108 8.49227 15.8713 7.72892 16.1258C7.60172 16.253 7.34726 16.253 7.22003 16.253L7.22003 16.253Z" id="Shape" fill="#2B2B2B" stroke="none" />
        </g>
        <g id="Group" transform="translate(613.9355 245.593)">
          <path d="M1.32435 45.2434C1.19712 45.2434 0.815461 45.1161 0.688228 45.1161C0.0521044 44.7344 -0.202361 43.9711 0.179337 43.335C2.21494 39.5182 4.75944 36.0832 7.30393 32.9025C13.6652 24.5057 19.7719 16.745 14.5558 1.85965C14.3013 1.09629 14.683 0.332952 15.4463 0.0785061C16.2097 -0.17594 16.9731 0.205739 17.2275 0.969077C22.8254 17.1266 16.0825 26.0324 9.46677 34.5565C7.04951 37.7371 4.50501 41.0449 2.59664 44.7345C2.34213 44.9889 1.83324 45.2434 1.32435 45.2434L1.32435 45.2434Z" id="Shape" fill="#2B2B2B" stroke="none" />
        </g>
        <path d="M17.2458 0L3.88719 21.501C-3.61913 33.4601 0.0704304 49.3632 12.1568 56.7423C22.8438 63.358 36.5841 61.1952 44.9809 51.9078L58.2123 36.768" transform="translate(683.8909 416.1529)" id="Shape" fill="#EA7068" stroke="none" />
        <path d="M134.507 128.654L132.98 126.364L65.5511 17.3323C57.6631 4.60977 43.0322 -2.00592 29.1648 0.538575C28.7831 6.51814 25.8569 22.6757 1.68419 25.093C-1.49643 34.8893 -0.0969873 45.7034 5.24648 54.6092L61.2255 145.193L22.8035 206.897L63.6427 243.665L131.326 166.313C140.486 155.753 141.759 140.486 134.507 128.654L134.507 128.654Z" transform="translate(678.3333 209.3827)" id="Shape" fill="url(#gradient_10)" stroke="none" />
        <g id="Group" transform="translate(686.0721 268.9015)">
          <path d="M25.4971 45.217C24.9882 45.217 24.6065 44.9625 24.3521 44.4536L0.179299 1.96048C-0.202361 1.32435 0.0521045 0.433783 0.68823 0.179337C1.32436 -0.202342 2.21495 0.0521045 2.46941 0.68823L26.6422 43.1814C27.0238 43.8175 26.7694 44.7081 26.1332 44.9625C26.0061 45.0898 25.7516 45.217 25.4971 45.217L25.4971 45.217Z" id="Shape" fill="#2B2B2B" stroke="none" />
        </g>
        <path d="M28.88 0.407285C24.0455 -0.992188 8.52405 1.55231 1.01778 2.95178L0 6.51409C5.59789 11.6031 17.4298 22.0355 22.2644 23.3078C25.5722 24.1984 29.1345 23.6895 32.0607 21.7811L32.0607 21.9083L47.2005 26.234L51.5261 11.0942L36.3863 6.76853L36.3863 6.89576C34.9868 3.71513 32.1879 1.29786 28.88 0.407285L28.88 0.407285Z" transform="translate(389.69 143.9931)" id="Shape" fill="#2B2B2B" stroke="none" />
        <path d="M108.396 38.0403L108.396 38.0403C106.615 44.5287 99.8716 48.2182 93.3832 46.3099C93.0015 46.1826 92.4926 46.0554 92.2381 45.9282L69.3376 36.768C66.7931 35.7502 64.1214 34.8596 61.4497 33.9691L0 15.1398L4.32564 0L66.4114 16.5392C69.0832 17.3026 71.8821 17.8115 74.5538 18.3204L98.9811 22.5188C105.597 23.6638 109.922 30.0251 108.777 36.6408C108.65 37.2769 108.523 37.6586 108.396 38.0403L108.396 38.0403Z" transform="translate(436.8905 154.96)" id="Shape" fill="#ABABC2" stroke="none" />
        <g id="Group" transform="translate(552.9342 212.3531)">
          <path d="M9.78176 11.9446C9.4001 11.9446 9.0184 11.8173 8.76397 11.4357L0.3671 2.27548C-0.141793 1.76658 -0.141793 0.748779 0.494333 0.3671C1.00323 -0.141793 2.02105 -0.141793 2.40271 0.494333L10.7996 9.65453C11.3085 10.1634 11.3085 11.1812 10.6724 11.5629C10.5451 11.8173 10.1635 11.9446 9.78176 11.9446L9.78176 11.9446Z" id="Shape" fill="#2B2B2B" stroke="none" />
        </g>
        <path d="M0 1.27225L7.50629 1.27225" transform="translate(639.1781 121.4998)" id="Line" fill="none" stroke="#F9F179" stroke-width="2.61" stroke-linecap="round" />
        <g id="Group" transform="translate(78.37057 713.9865)">
          <path d="M0 84.6046L84.6046 84.6046L84.6046 0L0 0L0 84.6046ZM81.8056 81.8056L2.67174 81.8056L2.67174 2.67169L81.8056 2.67169L81.8056 81.8056Z" id="Shape" fill="#2B2B2B" fill-rule="evenodd" stroke="none" />
        </g>
        <g id="Group" transform="translate(90.83861 728.7446)">
          <path d="M0 20.1015C0 31.1701 9.03298 40.203 20.1015 40.203C31.1701 40.203 40.2031 31.17 40.2031 20.1014C40.2031 9.16012 31.1701 0 20.1015 0C9.03297 0 0 9.03293 0 20.1015ZM2.79897 20.1013C2.79897 10.5594 10.5597 2.79877 20.1016 2.79877C29.6434 2.79877 37.4042 10.5594 37.4042 20.1013C37.4042 29.6432 29.6434 37.4038 20.1016 37.4038C10.5597 37.4038 2.79897 29.6432 2.79897 20.1013Z" id="Shape" fill="#2B2B2B" fill-rule="evenodd" stroke="none" />
        </g>
        <path d="M2.4027 0.381737L22.2498 18.5749C23.2676 19.4655 23.3948 21.1194 22.377 22.1372C21.4864 23.1549 19.8325 23.2822 18.8147 22.2644L18.6875 22.1372L0.3671 2.29011C-0.141802 1.78118 -0.141802 0.763396 0.494323 0.381737C1.00322 -0.127194 1.76657 -0.127194 2.4027 0.381737L2.4027 0.381737L2.4027 0.381737Z" transform="translate(123.6772 759.7874)" id="Shape" fill="#2B2B2B" stroke="none" />
        <g id="Group" transform="translate(288.5462 145.4181)">
          <path d="M0 0L90.2025 0L90.2025 2.79893L0 2.79893L0 0Z" id="Rectangle" fill="#2B2B2B" stroke="none" />
        </g>
        <path d="M0 5.85234C0 2.62018 2.62019 0 5.85236 0C9.08452 0 11.7047 2.62018 11.7047 5.85234C11.7047 9.0845 9.08452 11.7047 5.85236 11.7047C2.62019 11.7047 0 9.0845 0 5.85234Z" transform="translate(282.6938 140.9653)" id="Circle" fill="#2B2B2B" stroke="#2B2B2B" stroke-width="3" />
        <g id="Group" transform="translate(402.7943 145.4181)">
          <path d="M0 0L90.3297 0L90.3297 2.79893L0 2.79893L0 0Z" id="Rectangle" fill="#2B2B2B" stroke="none" />
        </g>
        <path d="M0 5.85234C0 2.62018 2.62018 0 5.85234 0C9.0845 0 11.7047 2.62018 11.7047 5.85234C11.7047 9.0845 9.0845 11.7047 5.85234 11.7047C2.62018 11.7047 0 9.0845 0 5.85234Z" transform="translate(487.2716 140.9653)" id="Circle" fill="#2B2B2B" stroke="#2B2B2B" stroke-width="3" />
        <path d="M321.243 138.518C278.114 135.465 223.153 40.6821 161.194 40.6821C79.1339 40.6821 88.6758 5.56803 54.834 0.860694C14.7581 -4.86443 0 17.6544 0 77.959L0 140.681L321.243 138.518L321.243 138.518Z" transform="translate(67.93811 679.0294)" id="Shape" fill="url(#gradient_11)" stroke="none" />
      </g>
    </g>
  </g>
</svg>