<?xml version="1.0" encoding="utf-8"?>
<svg width="931px" height="618px" viewBox="0 0 931 618" version="1.1" xmlns:xlink="http://www.w3.org/1999/xlink" xmlns="http://www.w3.org/2000/svg">
  <desc>Created with Lunacy</desc>
  <g id="svg">
    <path d="M0 0L931 0L931 618L0 618L0 0Z" transform="translate(2.062952E-05 0)" id="Background" fill="none" stroke="none" />
    <g id="Group">
      <g id="Group" transform="translate(400.5056 161.4237)">
        <g id="Group">
          <path d="M14 248L0 424.5L385.5 453L401.1 273.3C411.8 300.7 434.6 319.5 460.9 319.5C497.6 319.5 527.3 282.9 527.3 237.8C527.3 192.7 497.6 156.1 460.9 156.1C439.6 156.1 420.6 168.5 408.5 187.7L421.5 37.6L262.6 22.2C289.4 36.8 305.9 64 302.4 92.9C297.6 132.2 257.3 159.5 212.5 154C167.7 148.5 135.3 112.2 140.1 72.9C143.5 45.6 164 24 191.2 15.3L32.8999 0L17.9999 191.5" id="Shape" fill="#FECE2F" stroke="none" />
        </g>
      </g>
      <path d="M478.906 302.524C456.506 302.524 435.706 315.824 422.806 337.324L436.406 161.724C436.506 160.124 435.306 158.724 433.706 158.524L272.006 141.724C296.106 130.724 312.806 109.624 315.806 85.2236C318.306 65.3236 311.806 45.6236 297.506 29.6236C283.306 13.7236 263.206 3.52364 240.806 0.723639C194.406 -4.97636 152.606 23.6236 147.606 64.4236C144.406 90.2236 156.606 115.524 179.106 131.924L30.3058 116.424C29.5058 116.324 28.7058 116.624 28.1058 117.124C27.4058 117.624 27.1058 118.424 27.0058 119.224L0.00581897 551.224C-0.0941566 552.824 1.10579 554.324 2.70583 554.424L400.206 588.924C400.306 588.924 400.406 588.924 400.506 588.924C401.206 588.924 401.906 588.624 402.406 588.224C403.106 587.624 403.406 586.924 403.506 586.124L416.106 423.424C427.406 452.624 451.506 471.924 478.906 471.924C517.206 471.924 548.306 433.924 548.306 387.224C548.306 340.524 517.206 302.524 478.906 302.524L478.906 302.524L478.906 302.524Z" id="Shape" fill="#1A1A1A" stroke="none" />
      <g id="Group" transform="translate(397.4866 158.4045)">
        <g id="Group">
          <g id="Group">
            <path d="M388.519 459.019C388.419 459.019 388.419 459.019 388.319 459.019L2.81912 430.519C2.01907 430.419 1.31912 430.119 0.719142 429.519C0.219142 428.919 -0.0809065 428.119 0.0191911 427.319L14.0192 250.819C14.1191 249.119 15.6191 247.919 17.2191 248.019C18.9191 248.119 20.1191 249.619 20.0192 251.219L6.21902 424.719L385.719 452.819L401.019 276.019C401.119 274.619 402.219 273.519 403.619 273.319C405.019 273.119 406.319 273.919 406.819 275.219C417.419 302.119 439.819 319.519 463.919 319.519C498.919 319.519 527.319 284.219 527.319 240.819C527.319 197.419 498.819 162.119 463.919 162.119C444.319 162.119 426.119 173.119 414.019 192.319C413.319 193.519 411.819 194.019 410.519 193.519C409.219 193.119 408.419 191.819 408.519 190.419L421.219 43.3192L277.619 29.4192C299.619 45.8192 311.419 71.0192 308.319 96.2192C303.719 133.619 268.319 160.719 226.819 160.719C222.919 160.719 219.019 160.519 215.019 160.019C192.619 157.219 172.519 147.019 158.319 131.119C144.019 115.119 137.519 95.4192 140.019 75.5192C142.919 51.7192 158.519 31.3192 181.619 20.1192L38.7189 6.31918L24.119 194.719C24.019 196.419 22.519 197.619 20.9191 197.519C19.2191 197.419 18.019 195.919 18.119 194.319L33.019 2.81917C33.119 2.01917 33.4191 1.31917 34.119 0.719159C34.719 0.219159 35.519 -0.080844 36.319 0.0191621L194.619 15.3192C196.019 15.4192 197.119 16.6192 197.319 18.0192C197.519 19.4192 196.619 20.7192 195.219 21.2192C168.019 29.9192 149.219 51.0192 146.119 76.3192C143.919 94.4192 149.919 112.519 162.919 127.119C176.119 141.919 194.919 151.419 215.819 154.019C258.919 159.319 297.719 133.019 302.319 95.5192C305.619 68.9192 290.619 42.3192 264.119 27.8192C262.819 27.1192 262.319 25.6192 262.719 24.3192C263.119 22.9192 264.519 22.1192 265.919 22.2191L424.819 37.5192C426.419 37.7191 427.619 39.1192 427.519 40.7192L415.419 180.019C428.319 164.619 445.519 155.919 463.919 155.919C502.219 155.919 533.319 193.919 533.319 240.619C533.319 287.319 502.219 325.319 463.919 325.319C440.619 325.319 418.819 310.819 406.119 287.519L391.519 456.119C391.319 457.819 390.019 459.019 388.519 459.019L388.519 459.019L388.519 459.019Z" id="Shape" fill="#1A1A1A" stroke="none" />
          </g>
        </g>
      </g>
      <g id="Group" transform="translate(78.50552 374.7237)">
        <path d="M322.3 208.3L528.4 223.5C556 201.1 572 174.5 572 146C572 65.4 444 0 286 0C128 0 0 65.4 0 146C0 158.1 2.90002 169.8 8.29999 181L322.3 208.3L322.3 208.3L322.3 208.3Z" id="Shape" fill="#FFFFFF" stroke="none" />
      </g>
      <path d="M463.919 155.919C445.519 155.919 428.319 164.619 415.419 180.019L427.519 40.7191C427.619 39.1191 426.419 37.7191 424.819 37.5191L265.919 22.2191C264.519 22.1191 263.119 22.9191 262.719 24.3192C262.319 25.6192 262.819 27.1192 264.119 27.8192C290.619 42.3192 305.619 68.9191 302.319 95.5191C297.719 133.019 258.919 159.319 215.819 154.019C194.919 151.419 176.119 141.919 162.919 127.119C149.919 112.519 143.919 94.4191 146.119 76.3192C149.219 51.0192 168.019 29.9192 195.219 21.2192C196.619 20.7192 197.519 19.4192 197.319 18.0192C197.119 16.6192 196.019 15.4192 194.619 15.3192L36.3191 0.0191621C35.519 -0.080844 34.7191 0.219159 34.1191 0.719159C33.4192 1.31917 33.1191 2.01917 33.0192 2.81917L18.1191 194.319C18.0192 195.919 19.2191 197.419 20.9192 197.519C22.5192 197.619 24.0192 196.419 24.1191 194.719L38.7191 6.3192L181.619 20.1192C158.519 31.3192 142.919 51.7192 140.019 75.5192C137.519 95.4192 144.019 115.119 158.319 131.119C172.519 147.019 192.619 157.219 215.019 160.019C219.019 160.519 222.919 160.719 226.819 160.719C268.319 160.719 303.719 133.619 308.319 96.2192C311.419 71.0192 299.619 45.8192 277.619 29.4192L421.219 43.3192L408.519 190.419C408.419 191.819 409.219 193.119 410.519 193.519C411.819 194.019 413.319 193.519 414.019 192.319C426.119 173.119 444.319 162.119 463.919 162.119C498.819 162.119 527.319 197.419 527.319 240.819C527.319 284.219 498.919 319.519 463.919 319.519C439.819 319.519 417.419 302.119 406.819 275.219C406.319 273.919 405.019 273.119 403.619 273.319C402.219 273.519 401.119 274.619 401.019 276.019L385.719 452.819L209.519 439.719C208.419 440.619 207.219 441.519 206.019 442.519L2.91918 427.519L0.0191552 427.219L0.0191552 427.319C-0.0808203 428.119 0.219106 428.919 0.719106 429.519C1.31908 430.119 2.01916 430.419 2.81908 430.519L388.319 459.019C388.419 459.019 388.419 459.019 388.519 459.019C390.019 459.019 391.319 457.819 391.519 456.119L406.119 287.519C418.819 310.819 440.619 325.319 463.919 325.319C502.219 325.319 533.319 287.319 533.319 240.619C533.319 193.919 502.219 155.919 463.919 155.919L463.919 155.919L463.919 155.919Z" transform="translate(397.4865 158.4045)" id="Shape" fill="#1A1A1A" stroke="none" />
      <g id="Group" transform="translate(608.6915 297.5509)">
        <g id="Group">
          <g id="Group">
            <path d="M3.01406 154.673C2.31411 154.673 1.61403 154.473 1.11403 153.973C-0.186014 152.873 -0.385965 151.073 0.71401 149.773C53.714 85.8727 119.414 35.5728 195.914 0.272726C197.414 -0.427287 199.214 0.272726 199.914 1.77273C200.614 3.27273 199.914 5.07271 198.414 5.77273C122.714 40.6727 57.714 90.3727 5.31398 153.573C4.71413 154.273 3.91408 154.673 3.01406 154.673L3.01406 154.673L3.01406 154.673Z" id="Shape" fill="#FFFFFF" stroke="none" />
          </g>
        </g>
      </g>
      <g id="Group" transform="translate(397.4999 384.2236)">
        <g id="Group">
          <g id="Group">
            <path d="M3.00581 204.7C2.90583 204.7 2.80586 204.7 2.80586 204.7C1.10591 204.6 -0.0941631 203.1 0.0058125 201.5L13.9059 22.3C14.0059 20.8 15.2059 19.6 16.7059 19.5C18.2059 19.4 19.506 20.4 19.8059 21.9C26.8059 57.1 52.106 81.7 81.3059 81.7C116.306 81.7 144.706 46.4 144.706 3C144.706 1.29999 146.006 0 147.706 0C149.406 0 150.706 1.29999 150.706 3C150.706 49.7 119.606 87.7 81.3059 87.7C53.9059 87.7 29.8059 68.4 18.5059 39.2L6.00581 201.9C5.90583 203.5 4.60578 204.7 3.00581 204.7L3.00581 204.7L3.00581 204.7Z" id="Shape" fill="#1A1A1A" stroke="none" />
          </g>
        </g>
      </g>
      <g id="Group" transform="translate(423.3999 178.3178)">
        <g id="Group">
          <g id="Group">
            <path d="M3.00581 77.8058C2.90583 77.8058 2.90583 77.8058 2.80586 77.8058C1.10591 77.7058 -0.0941631 76.2058 0.0058125 74.6058L5.20576 2.80582C5.30574 1.10582 6.80574 -0.0941763 8.40571 0.00581456C10.1057 0.105821 11.3058 1.60582 11.2058 3.20581L6.00581 75.0058C5.80574 76.6058 4.50581 77.8058 3.00581 77.8058L3.00581 77.8058L3.00581 77.8058Z" id="Shape" fill="#1A1A1A" stroke="none" />
          </g>
        </g>
      </g>
      <path d="M0 80.6C46.2 64.1 88.9 39.9 127.5 8.3L41.4 0C29.4 6.8 17.1 12.9 4.5 18.4L0 80.6L0 80.6L0 80.6Z" transform="translate(429.7056 168.2237)" id="Shape" fill="#FFFFFF" stroke="none" />
      <g id="Group" transform="translate(168.4056 300.6237)">
        <g id="Group">
          <g id="Group">
            <path d="M0 35.5C0 15.8939 15.8939 0 35.5 0C55.1061 0 71 15.8939 71 35.5C71 55.1061 55.1061 71 35.5 71C15.8939 71 0 55.1061 0 35.5L0 35.5Z" id="Circle" fill="#FECE2F" stroke="none" />
          </g>
        </g>
      </g>
      <path d="M401.4 25.5C387.6 31.2 373.5 36.1 359 40.2C313.8 52.9 264.6 57.7 213 54.5C116.6 48.5 38.9 16.9 3.70001 0L0 59.8C44.5 78.8 119.7 104.7 209.5 110.4C221.1 111.1 232.6 111.5 244 111.5C289.5 111.5 333.1 105.7 374.2 94.2C381.9 92 389.4 89.7 396.9 87.1L401.4 25.5L401.4 25.5L401.4 25.5Z" transform="translate(26.60561 163.8236)" id="Shape" fill="#FFFFFF" stroke="none" />
      <g id="Group" transform="translate(694.6056 438.8237)">
        <g id="Group">
          <g id="Group">
            <path d="M0 22C0 9.84974 9.84974 0 22 0C34.1503 0 44 9.84974 44 22C44 34.1503 34.1503 44 22 44C9.84974 44 0 34.1503 0 22L0 22Z" id="Circle" fill="#FFFFFF" stroke="none" />
          </g>
        </g>
      </g>
      <g id="Group" transform="translate(523.5674 446.2097)">
        <g id="Group">
          <g id="Group">
            <path d="M3.03823 151.214C2.73818 151.214 2.43825 151.214 2.1382 151.114C0.53823 150.614 -0.361794 148.914 0.138206 147.314C0.238181 146.914 12.1382 109.714 43.0382 60.214C55.8383 39.714 70.2382 19.814 85.7382 1.11401C86.8381 -0.185979 88.6382 -0.385991 89.9381 0.714015C91.2382 1.81403 91.4381 3.61401 90.3381 4.91403C74.9381 23.414 60.7382 43.114 48.0381 63.414C17.5381 112.314 5.83815 148.814 5.73806 149.214C5.53823 150.414 4.33828 151.214 3.03823 151.214L3.03823 151.214L3.03823 151.214Z" id="Shape" fill="#1A1A1A" stroke="none" />
          </g>
        </g>
      </g>
    </g>
  </g>
</svg>