<?xml version="1.0" encoding="utf-8"?>
<svg width="2000px" height="2068px" viewBox="0 0 2000 2068" version="1.1" xmlns:xlink="http://www.w3.org/1999/xlink" xmlns="http://www.w3.org/2000/svg">
  <desc>Created with Lunacy</desc>
  <g id="Logo">
    <g id="taxi-2">
      <path d="M0 0L2000 0L2000 2000L0 2000L0 0Z" id="Background" fill="none" stroke="none" />
      <g id="Layer_4" transform="translate(55.92139 293.6588)">
        <path d="M551.979 1614.14C-6.32135 1523.14 -162.221 945.141 181.579 597.541C494.679 280.841 332.079 34.0412 846.179 1.54123C1301.18 -27.1588 1754.28 346.541 1847.38 991.141C1940.38 1633.94 1252.18 1728.24 551.979 1614.14L551.979 1614.14Z" id="Shape" fill="#FECE2F" stroke="none" />
      </g>
      <g id="Group" transform="translate(821.8944 38.87634)">
        <g id="Group" transform="translate(400.5056 161.4237)">
          <g id="Group">
            <path d="M14 248L0 424.5L385.5 453L401.1 273.3C411.8 300.7 434.6 319.5 460.9 319.5C497.6 319.5 527.3 282.9 527.3 237.8C527.3 192.7 497.6 156.1 460.9 156.1C439.6 156.1 420.6 168.5 408.5 187.7L421.5 37.6L262.6 22.2C289.4 36.8 305.9 64 302.4 92.9C297.6 132.2 257.3 159.5 212.5 154C167.7 148.5 135.3 112.2 140.1 72.9C143.5 45.6 164 24 191.2 15.3L32.8999 0L17.9999 191.5" id="Shape" fill="#FECE2F" stroke="none" />
          </g>
        </g>
        <path d="M478.906 302.524C456.506 302.524 435.706 315.824 422.806 337.324L436.406 161.724C436.506 160.124 435.306 158.724 433.706 158.524L272.006 141.724C296.106 130.724 312.806 109.624 315.806 85.2236C318.306 65.3236 311.806 45.6236 297.506 29.6236C283.306 13.7236 263.206 3.52364 240.806 0.72364C194.406 -4.97636 152.606 23.6236 147.606 64.4236C144.406 90.2236 156.606 115.524 179.106 131.924L30.3058 116.424C29.5058 116.324 28.7058 116.624 28.1058 117.124C27.4058 117.624 27.1058 118.424 27.0058 119.224L0.00579834 551.224C-0.0941772 552.824 1.10577 554.324 2.70581 554.424L400.206 588.924C400.306 588.924 400.406 588.924 400.506 588.924C401.206 588.924 401.906 588.624 402.406 588.224C403.106 587.624 403.406 586.924 403.506 586.124L416.106 423.424C427.406 452.624 451.506 471.924 478.906 471.924C517.206 471.924 548.306 433.924 548.306 387.224C548.306 340.524 517.206 302.524 478.906 302.524L478.906 302.524Z" id="Shape" fill="#1A1A1A" stroke="none" />
        <g id="Group" transform="translate(397.4866 158.4045)">
          <g id="Group">
            <g id="Group">
              <path d="M388.519 459.019C388.419 459.019 388.419 459.019 388.319 459.019L2.81909 430.519C2.01904 430.419 1.31909 430.119 0.719116 429.519C0.219116 428.919 -0.0809326 428.119 0.019165 427.319L14.0192 250.819C14.1191 249.119 15.6191 247.919 17.2191 248.019C18.9191 248.119 20.1191 249.619 20.0192 251.219L6.21899 424.719L385.719 452.819L401.019 276.019C401.119 274.619 402.219 273.519 403.619 273.319C405.019 273.119 406.319 273.919 406.819 275.219C417.419 302.119 439.819 319.519 463.919 319.519C498.919 319.519 527.319 284.219 527.319 240.819C527.319 197.419 498.819 162.119 463.919 162.119C444.319 162.119 426.119 173.119 414.019 192.319C413.319 193.519 411.819 194.019 410.519 193.519C409.219 193.119 408.419 191.819 408.519 190.419L421.219 43.3192L277.619 29.4192C299.619 45.8192 311.419 71.0192 308.319 96.2192C303.719 133.619 268.319 160.719 226.819 160.719C222.919 160.719 219.019 160.519 215.019 160.019C192.619 157.219 172.519 147.019 158.319 131.119C144.019 115.119 137.519 95.4192 140.019 75.5192C142.919 51.7192 158.519 31.3192 181.619 20.1192L38.7189 6.31918L24.119 194.719C24.019 196.419 22.519 197.619 20.9191 197.519C19.2191 197.419 18.019 195.919 18.119 194.319L33.019 2.81917C33.119 2.01917 33.4191 1.31917 34.119 0.719162C34.719 0.219162 35.519 -0.0808411 36.319 0.019165L194.619 15.3192C196.019 15.4192 197.119 16.6192 197.319 18.0192C197.519 19.4192 196.619 20.7192 195.219 21.2192C168.019 29.9192 149.219 51.0192 146.119 76.3192C143.919 94.4192 149.919 112.519 162.919 127.119C176.119 141.919 194.919 151.419 215.819 154.019C258.919 159.319 297.719 133.019 302.319 95.5192C305.619 68.9192 290.619 42.3192 264.119 27.8192C262.819 27.1192 262.319 25.6192 262.719 24.3192C263.119 22.9192 264.519 22.1192 265.919 22.2191L424.819 37.5192C426.419 37.7191 427.619 39.1192 427.519 40.7192L415.419 180.019C428.319 164.619 445.519 155.919 463.919 155.919C502.219 155.919 533.319 193.919 533.319 240.619C533.319 287.319 502.219 325.319 463.919 325.319C440.619 325.319 418.819 310.819 406.119 287.519L391.519 456.119C391.319 457.819 390.019 459.019 388.519 459.019L388.519 459.019Z" id="Shape" fill="#1A1A1A" stroke="none" />
            </g>
          </g>
        </g>
        <g id="Group" transform="translate(78.50549 374.7237)">
          <path d="M322.3 208.3L528.4 223.5C556 201.1 572 174.5 572 146C572 65.4 444 0 286 0C128 0 0 65.4 0 146C0 158.1 2.90002 169.8 8.29999 181L322.3 208.3L322.3 208.3Z" id="Shape" fill="#FFFFFF" stroke="none" />
        </g>
        <path d="M463.919 155.919C445.519 155.919 428.319 164.619 415.419 180.019L427.519 40.7191C427.619 39.1191 426.419 37.7191 424.819 37.5191L265.919 22.2191C264.519 22.1191 263.119 22.9191 262.719 24.3192C262.319 25.6192 262.819 27.1192 264.119 27.8192C290.619 42.3192 305.619 68.9191 302.319 95.5191C297.719 133.019 258.919 159.319 215.819 154.019C194.919 151.419 176.119 141.919 162.919 127.119C149.919 112.519 143.919 94.4191 146.119 76.3192C149.219 51.0192 168.019 29.9192 195.219 21.2192C196.619 20.7192 197.519 19.4192 197.319 18.0192C197.119 16.6192 196.019 15.4192 194.619 15.3192L36.3191 0.019165C35.519 -0.0808411 34.7191 0.219162 34.1191 0.719162C33.4192 1.31917 33.1191 2.01917 33.0192 2.81917L18.1191 194.319C18.0192 195.919 19.2191 197.419 20.9192 197.519C22.5192 197.619 24.0192 196.419 24.1191 194.719L38.7191 6.3192L181.619 20.1192C158.519 31.3192 142.919 51.7192 140.019 75.5192C137.519 95.4192 144.019 115.119 158.319 131.119C172.519 147.019 192.619 157.219 215.019 160.019C219.019 160.519 222.919 160.719 226.819 160.719C268.319 160.719 303.719 133.619 308.319 96.2192C311.419 71.0192 299.619 45.8192 277.619 29.4192L421.219 43.3192L408.519 190.419C408.419 191.819 409.219 193.119 410.519 193.519C411.819 194.019 413.319 193.519 414.019 192.319C426.119 173.119 444.319 162.119 463.919 162.119C498.819 162.119 527.319 197.419 527.319 240.819C527.319 284.219 498.919 319.519 463.919 319.519C439.819 319.519 417.419 302.119 406.819 275.219C406.319 273.919 405.019 273.119 403.619 273.319C402.219 273.519 401.119 274.619 401.019 276.019L385.719 452.819L209.519 439.719C208.419 440.619 207.219 441.519 206.019 442.519L2.91919 427.519L0.019165 427.219L0.019165 427.319C-0.0808105 428.119 0.219116 428.919 0.719116 429.519C1.31909 430.119 2.01917 430.419 2.81909 430.519L388.319 459.019C388.419 459.019 388.419 459.019 388.519 459.019C390.019 459.019 391.319 457.819 391.519 456.119L406.119 287.519C418.819 310.819 440.619 325.319 463.919 325.319C502.219 325.319 533.319 287.319 533.319 240.619C533.319 193.919 502.219 155.919 463.919 155.919L463.919 155.919Z" transform="translate(397.4865 158.4045)" id="Shape" fill="#1A1A1A" stroke="none" />
        <g id="Group" transform="translate(608.6915 297.5509)">
          <g id="Group">
            <g id="Group">
              <path d="M3.01404 154.673C2.31409 154.673 1.61401 154.473 1.11401 153.973C-0.186035 152.873 -0.385986 151.073 0.713989 149.773C53.714 85.8727 119.414 35.5728 195.914 0.272736C197.414 -0.427277 199.214 0.272736 199.914 1.77274C200.614 3.27274 199.914 5.07272 198.414 5.77274C122.714 40.6727 57.714 90.3727 5.31396 153.573C4.71411 154.273 3.91406 154.673 3.01404 154.673L3.01404 154.673Z" id="Shape" fill="#FFFFFF" stroke="none" />
            </g>
          </g>
        </g>
        <g id="Group" transform="translate(397.4998 384.2236)">
          <g id="Group">
            <g id="Group">
              <path d="M3.00586 204.7C2.90588 204.7 2.80591 204.7 2.80591 204.7C1.10596 204.6 -0.0941162 203.1 0.00585938 201.5L13.9059 22.3C14.0059 20.8 15.2059 19.6 16.7059 19.5C18.2059 19.4 19.506 20.4 19.8059 21.9C26.8059 57.1 52.106 81.7 81.3059 81.7C116.306 81.7 144.706 46.4 144.706 3C144.706 1.29999 146.006 0 147.706 0C149.406 0 150.706 1.29999 150.706 3C150.706 49.7 119.606 87.7 81.3059 87.7C53.9059 87.7 29.8059 68.4 18.5059 39.2L6.00586 201.9C5.90588 203.5 4.60583 204.7 3.00586 204.7L3.00586 204.7Z" id="Shape" fill="#1A1A1A" stroke="none" />
            </g>
          </g>
        </g>
        <g id="Group" transform="translate(423.3998 178.3178)">
          <g id="Group">
            <g id="Group">
              <path d="M3.00586 77.8058C2.90588 77.8058 2.90588 77.8058 2.80591 77.8058C1.10596 77.7058 -0.0941162 76.2058 0.00585938 74.6058L5.20581 2.80582C5.30579 1.10582 6.80579 -0.0941772 8.40576 0.0058136C10.1057 0.10582 11.3058 1.60582 11.2058 3.20581L6.00586 75.0058C5.80579 76.6058 4.50586 77.8058 3.00586 77.8058L3.00586 77.8058Z" id="Shape" fill="#1A1A1A" stroke="none" />
            </g>
          </g>
        </g>
        <path d="M0 80.6C46.2 64.1 88.9 39.9 127.5 8.3L41.4 0C29.4 6.8 17.1 12.9 4.5 18.4L0 80.6L0 80.6Z" transform="translate(429.7056 168.2237)" id="Shape" fill="#FFFFFF" stroke="none" />
        <g id="Group" transform="translate(168.4056 300.6237)">
          <g id="Group">
            <g id="Group">
              <path d="M0 35.5C0 15.8939 15.8939 0 35.5 0C55.1061 0 71 15.8939 71 35.5C71 55.1061 55.1061 71 35.5 71C15.8939 71 0 55.1061 0 35.5Z" id="Circle" fill="#FECE2F" stroke="none" />
            </g>
          </g>
        </g>
        <path d="M401.4 25.5C387.6 31.2 373.5 36.1 359 40.2C313.8 52.9 264.6 57.7 213 54.5C116.6 48.5 38.9 16.9 3.70001 0L0 59.8C44.5 78.8 119.7 104.7 209.5 110.4C221.1 111.1 232.6 111.5 244 111.5C289.5 111.5 333.1 105.7 374.2 94.2C381.9 92 389.4 89.7 396.9 87.1L401.4 25.5L401.4 25.5Z" transform="translate(26.60559 163.8236)" id="Shape" fill="#FFFFFF" stroke="none" />
        <g id="Group" transform="translate(694.6056 438.8237)">
          <g id="Group">
            <g id="Group">
              <path d="M0 22C0 9.84974 9.84974 0 22 0C34.1503 0 44 9.84974 44 22C44 34.1503 34.1503 44 22 44C9.84974 44 0 34.1503 0 22Z" id="Circle" fill="#FFFFFF" stroke="none" />
            </g>
          </g>
        </g>
        <g id="Group" transform="translate(523.5674 446.2097)">
          <g id="Group">
            <g id="Group">
              <path d="M3.03821 151.214C2.73816 151.214 2.43823 151.214 2.13818 151.114C0.538208 150.614 -0.361816 148.914 0.138184 147.314C0.238159 146.914 12.1382 109.714 43.0382 60.214C55.8383 39.714 70.2382 19.814 85.7382 1.11401C86.8381 -0.185974 88.6382 -0.385986 89.9381 0.71402C91.2382 1.81403 91.4381 3.61401 90.3381 4.91403C74.9381 23.414 60.7382 43.114 48.0381 63.414C17.5381 112.314 5.83813 148.814 5.73804 149.214C5.53821 150.414 4.33826 151.214 3.03821 151.214L3.03821 151.214Z" id="Shape" fill="#1A1A1A" stroke="none" />
            </g>
          </g>
        </g>
      </g>
      <g id="Group" transform="translate(962.8944 731.803)">
        <g id="Group">
          <g id="Group">
            <path d="M651.006 20.4969C651.006 20.4969 663.606 199.897 627.606 329.897C591.606 459.897 534.606 603.897 405.606 734.897C276.606 865.897 126.606 921.097 0.105591 939.997C0.105591 939.997 -4.29443 744.697 43.7056 657.697C91.7056 570.697 144.106 497.597 144.106 497.597C144.106 497.597 191.606 441.997 236.606 423.997C281.606 405.997 369.606 392.997 444.606 327.997C519.606 262.997 523.606 189.997 523.606 189.997C523.606 189.997 559.506 53.297 561.106 4.09698C626.106 -11.0031 651.006 20.4969 651.006 20.4969L651.006 20.4969Z" id="Shape" fill="#FFFFFF" stroke="none" />
          </g>
        </g>
      </g>
      <g id="Group" transform="translate(385.8633 411.8565)">
        <g id="Group">
          <g id="Group">
            <path d="M378.537 621.743C378.537 621.743 374.037 551.743 336.037 465.743C319.037 427.143 283.537 385.743 289.037 303.743C294.537 221.743 350.537 129.743 416.537 65.7435C482.537 1.74347 416.537 65.7435 416.537 65.7435C416.537 65.7435 410.237 -1.95654 362.237 0.043457C362.237 0.043457 282.537 75.7435 227.037 139.743C171.537 203.743 67.5367 319.743 20.5367 483.743C-26.4633 647.743 20.5367 805.743 30.5367 827.743C40.5367 849.743 199.537 856.743 280.537 784.743C361.537 712.743 373.537 649.743 373.537 649.743L378.537 621.743L378.537 621.743Z" id="Shape" fill="#FFFFFF" stroke="none" />
          </g>
        </g>
      </g>
      <g id="Group" transform="translate(1547.348 912.6946)">
        <g id="Group">
          <g id="Group">
            <path d="M3.05212 361.905C2.55212 361.905 1.95215 361.805 1.45215 361.505C0.052124 360.605 -0.447876 358.805 0.452148 357.405C49.8522 276.205 74.2522 184.105 86.0521 121.205C98.8522 53.0054 99.9521 3.4054 99.9521 2.9054C99.9521 1.20538 101.352 -0.0946045 103.052 0.00537109C104.752 0.00537109 106.052 1.4054 105.952 3.10535C105.952 3.60535 104.752 53.6053 91.8522 122.305C79.9521 185.705 55.2522 278.505 5.45215 360.605C5.05212 361.405 4.05212 361.905 3.05212 361.905L3.05212 361.905Z" id="Shape" fill="#1A1A1A" stroke="none" />
          </g>
        </g>
      </g>
      <g id="Group" transform="translate(355.0921 726.6047)">
        <g id="Group">
          <g id="Group">
            <path d="M3.30792 271.995C1.70792 271.995 0.407928 270.695 0.307922 269.095C-2.79208 188.995 18.1079 120.495 36.3079 77.0953C56.0079 30.0953 76.7079 1.4953 76.9079 1.19525C77.9079 -0.104736 79.8079 -0.404724 81.1079 0.595276C82.4079 1.59528 82.7079 3.4953 81.7079 4.79529C81.5079 5.09528 61.1079 33.1953 41.7079 79.5953C23.9079 122.395 3.30792 189.995 6.30792 268.895C6.40793 270.595 5.10791 271.895 3.40793 271.995C3.40793 271.995 3.40793 271.995 3.30792 271.995L3.30792 271.995Z" id="Shape" fill="#1A1A1A" stroke="none" />
          </g>
        </g>
      </g>
      <g id="Group" transform="translate(1356.4 1169.6)">
        <g id="Group">
          <g id="Group">
            <path d="M0 29C0 12.9837 10.2975 0 23 0C35.7025 0 46 12.9837 46 29C46 45.0163 35.7025 58 23 58C10.2975 58 0 45.0163 0 29Z" id="Ellipse" fill="#1A1A1A" stroke="none" />
          </g>
        </g>
      </g>
      <g id="Group" transform="translate(589.8928 571.65)">
        <g id="Group">
          <g id="Group">
            <path d="M0 22.5C0 10.0736 11.4167 0 25.5 0C39.5833 0 51 10.0736 51 22.5C51 34.9264 39.5833 45 25.5 45C11.4167 45 0 34.9264 0 22.5Z" transform="matrix(0.763 -0.6464 0.6464 0.763 0 32.96643)" id="Ellipse" fill="#1A1A1A" stroke="none" />
          </g>
        </g>
      </g>
      <g id="Group" transform="translate(746.4 271.9)">
        <g id="Group">
          <g id="Group">
            <path d="M56 205.7C56 205.7 99.5 173.2 117 148.7C134.5 124.2 157 75.7 160 69.2C163 62.7 170 43.2 163 39.7C156 36.2 126.5 70.7 126.5 70.7C126.5 70.7 103 100.7 95.5 89.7C88 78.7 90 57.2 90 57.2L93.3 38.8L95.8 0C95.8 0 73.4 9.29999 68 19.8C62.6 30.3 42.5 72.8 42.5 72.8L30 102.8L0 139.8C0 139.8 27 137.8 38.5 156.8C50 175.8 56 205.7 56 205.7L56 205.7Z" id="Shape" fill="#FECE2F" stroke="none" />
          </g>
        </g>
      </g>
      <g id="Group" transform="translate(383.6169 267.6445)">
        <path d="M1 0C1 0 1 0 0 1L0 1C0 1 0 1 1 0L1 0Z" transform="translate(460.3831 46.45551)" id="Shape" fill="#1A1A1A" stroke="none" />
        <path d="M531.183 46.1555C530.283 43.2555 528.483 41.8555 527.183 41.2555C520.383 38.1555 511.183 47.8555 495.483 65.2555C484.083 77.9555 468.483 95.2555 461.883 93.3555C459.483 92.6555 458.383 88.6555 457.783 85.4555C452.383 54.7555 459.383 47.4555 460.383 46.5555L457.383 41.3555C456.783 41.6555 453.583 43.7555 451.583 50.5555C449.083 58.9555 449.183 71.0555 451.883 86.4555C453.083 93.5555 455.883 97.8555 460.183 99.0555C470.383 102.055 484.682 86.1571 499.881 69.2579L499.883 69.2555C505.883 62.5555 511.483 56.2555 516.283 51.9555C522.783 46.0555 524.583 46.6555 524.583 46.6555C524.683 46.7556 524.983 46.9555 525.283 47.8556C528.883 60.0556 501.783 114.056 482.283 144.356C467.883 166.756 433.183 194.856 421.183 204.356C417.983 180.256 409.583 162.656 396.183 151.756C386.083 143.656 375.583 141.456 368.983 140.956L394.983 108.856C395.083 108.656 395.283 108.456 395.383 108.156L425.383 37.9555C430.283 26.4555 439.083 16.9555 450.183 11.2555L461.083 5.65552C462.583 4.95551 463.183 3.15552 462.383 1.65552C461.683 0.155518 459.883 -0.444489 458.383 0.35553L447.483 5.95554C435.183 12.2555 425.383 22.8555 419.983 35.5555L390.183 105.355L360.583 141.956C355.983 146.156 285.083 211.556 209.283 301.556C163.483 355.956 124.883 408.556 94.4832 457.955C56.4832 519.755 31.3831 576.755 19.8832 627.255C-6.01685 741.355 -1.91684 829.255 6.08316 882.855C14.7832 941.156 29.4832 971.956 30.0832 973.255C30.5832 974.355 31.6832 974.955 32.7832 974.955C33.2832 974.955 33.6832 974.855 34.0832 974.855C35.5832 974.156 36.1832 972.355 35.4832 970.855C35.3831 970.555 21.1832 940.555 12.4832 885.055C38.4832 877.155 59.8832 840.355 62.5832 795.055C65.6832 743.555 43.7832 700.155 13.2832 696.755C16.2832 675.255 20.3832 652.656 25.7832 628.755C37.0832 578.855 61.8832 522.555 99.5832 461.255C129.683 412.055 168.183 359.755 213.783 305.555C244.883 268.755 275.083 235.955 300.183 209.955C301.383 209.855 312.683 209.155 326.083 214.955C327.149 215.44 328.121 215.924 329.181 216.409C329.043 216.352 328.946 216.337 328.783 216.255C328.783 216.255 364.383 239.855 338.083 303.655C323.283 327.555 311.583 351.655 303.283 375.455C290.583 411.655 285.783 447.155 288.783 481.255C288.783 481.655 288.883 481.955 288.883 482.355C270.883 491.155 174.983 539.155 163.983 563.555C154.183 585.355 171.283 610.555 202.783 601.555C213.439 598.511 223.9 593.75 233.668 589.305C252.774 580.609 269.225 573.122 279.283 582.055C279.946 582.647 280.608 583.252 281.277 583.864C290.001 591.844 299.942 600.935 328.083 594.155C348.183 635.655 369.483 684.255 377.783 766.255C377.983 767.955 379.483 769.155 381.083 768.955C382.783 768.755 383.983 767.255 383.783 765.655C374.683 675.655 350.183 625.355 328.483 581.055C312.183 547.855 298.183 519.155 294.783 480.655C291.783 447.455 296.583 412.755 308.883 377.455C318.783 349.155 333.583 320.355 352.783 291.955C358.883 282.855 365.083 274.455 371.183 266.655C371.983 266.255 372.583 265.555 372.783 264.655C396.283 234.755 416.983 215.655 420.383 212.555C420.583 212.455 420.683 212.355 420.883 212.255C422.883 210.755 469.483 175.555 487.583 147.455C495.383 135.255 507.583 113.955 517.183 93.6553C528.583 69.5555 533.283 53.4555 531.183 46.1555ZM328.483 209.456C328.783 209.656 329.183 209.755 329.483 209.956L380.983 149.956C373.083 146.956 366.383 146.855 364.083 146.956C359.683 150.956 337.283 171.755 305.983 203.956C311.383 204.355 319.483 205.556 328.483 209.456ZM334.983 212.755L386.483 152.655C388.483 153.755 390.483 155.055 392.483 156.655C398.183 161.255 402.983 167.355 406.683 174.855L356.383 231.456C349.483 222.556 341.983 216.655 334.983 212.755ZM359.983 236.355C363.983 242.256 367.683 249.256 370.783 257.556C392.283 230.755 410.883 213.155 415.683 208.855C414.483 198.255 412.383 188.855 409.283 180.855L359.983 236.355Z" id="Shape" fill="#1A1A1A" fill-rule="evenodd" stroke="none" />
      </g>
      <g id="Group" transform="translate(1214.894 1171.3)">
        <g id="Group">
          <g id="Group">
            <path d="M13.2057 223.4C11.6057 223.4 9.50574 222.9 7.60571 220.8C4.40576 217.5 0.205688 209.2 0.0057373 176.2C-0.0942383 157.2 1.10571 132.1 3.60571 101.8C7.90576 50.2001 14.6057 0.5 14.6057 0L20.5057 0.800049C20.4058 1.30005 13.8058 50.9 9.50574 102.3C7.00574 132.4 5.80579 157.3 5.90576 176.1C6.10571 206.1 9.70581 214.4 11.9058 216.7C12.6057 217.4 13.1057 217.4 13.3058 217.4C22.7058 216.7 28.2058 189.8 33.5057 163.8C41.1057 126.5 49.8058 84.1001 74.3058 73.6001L76.7058 79.1001C55.0059 88.4002 46.4058 130.8 39.4058 165C32.9058 197 27.7058 222.3 13.8058 223.4C13.6057 223.3 13.4058 223.4 13.2057 223.4L13.2057 223.4Z" id="Shape" fill="#FECE2F" stroke="none" />
          </g>
        </g>
      </g>
      <g id="Group" transform="translate(511.4 947.9993)">
        <g id="Group">
          <g id="Group">
            <path d="M6 132.001L0 131.401C6.29999 73.2007 56.6 59.8008 93.3 50.0007C117.7 43.5007 132.6 38.9008 132 27.9008C131.8 23.9008 130 20.5007 126.4 17.5007C103.8 -1.19928 26.1 8.60071 25.4 8.70074L24.6 2.70074C27.9 2.30072 105.7 -7.49927 130.2 12.9008C135 16.9008 137.6 21.8008 137.9 27.5007C138.8 44.0007 119.4 49.2007 94.7 55.7007C57.9 65.6007 11.9 77.9008 6 132.001L6 132.001Z" id="Shape" fill="#FECE2F" stroke="none" />
          </g>
        </g>
      </g>
      <g id="Group" transform="translate(260.7 109.5)">
        <g id="Group" transform="translate(210.2357 78.55475)">
          <g id="Group">
            <path d="M7.56433 175.345C10.5643 178.145 14.5643 179.545 19.2643 179.545C23.0643 179.545 27.2643 178.645 31.5643 176.945C53.5643 167.845 68.4644 148.745 83.0643 128.345C86.1643 124.045 89.0643 119.745 91.8643 115.445C94.8643 115.845 97.9644 115.745 101.064 115.145C108.564 113.645 114.964 109.245 120.264 105.245C137.764 91.9452 152.464 74.7452 163.064 55.4452C163.264 55.4452 163.564 55.5452 163.864 55.5452C171.164 56.3452 177.764 52.7452 183.964 49.0452C203.164 37.5452 222.564 24.2452 234.664 5.1452C235.664 3.5452 235.264 1.5452 233.664 0.545197C232.064 -0.454803 230.064 -0.0548096 229.064 1.5452C218.364 18.4452 201.964 30.5452 180.564 43.3452C175.764 46.2452 171.064 48.8452 166.364 49.0452C167.864 45.4452 168.864 40.6452 167.364 36.8452C166.464 34.6452 164.764 32.9452 162.564 32.1452C157.764 30.3452 152.664 33.6452 150.964 37.8452C149.664 41.1452 150.064 44.8452 152.064 48.1452C153.264 50.0452 154.964 51.7452 156.864 53.0452C146.764 71.2452 132.764 87.4452 116.264 100.045C111.564 103.645 105.964 107.445 99.7643 108.745C98.3643 109.045 97.0643 109.145 95.7643 109.145C101.664 98.7452 105.764 88.0452 106.264 76.3452C106.364 73.6452 106.164 70.0452 103.864 67.3452C102.164 65.2452 99.2643 63.9452 95.9643 63.7452C90.9643 63.4452 86.3643 65.2452 82.5643 69.0452C76.9643 74.6452 73.5643 84.1452 74.0643 93.1452C74.4643 99.8452 76.1643 104.945 79.2643 108.745C80.8643 110.745 82.9643 112.245 85.2643 113.445C82.8643 117.145 80.2643 120.845 77.6643 124.545C63.6643 144.045 49.4643 162.345 29.0643 170.845C25.5643 172.245 16.8643 175.145 11.9643 170.645C10.6643 169.345 9.5643 167.445 8.5643 164.745C4.0643 152.145 7.26431 137.345 16.5643 127.745C18.3643 125.945 20.9643 123.745 23.4643 124.045C24.1643 124.045 25.1643 124.845 25.4643 125.745C25.5643 125.845 25.7643 126.245 25.5643 126.445C24.3643 127.845 24.5643 129.945 25.9643 131.145C27.3643 132.345 29.4643 132.145 30.6643 130.745C32.4643 128.745 32.8643 125.945 31.7643 123.245C30.4643 120.045 27.4643 117.745 24.2643 117.345C20.0643 116.945 15.9643 118.845 11.8643 123.045C0.864319 134.345 -2.93567 151.945 2.36432 166.845C3.76434 170.645 5.36432 173.345 7.56433 175.345ZM157.164 40.0453C157.664 38.9453 158.864 38.0453 159.864 38.0453C159.964 38.0453 160.164 38.0453 160.364 38.1452C160.764 38.2452 161.064 38.5452 161.264 39.0452C161.864 40.6452 161.364 43.9453 159.964 46.8452C159.064 46.2453 158.364 45.3452 157.764 44.4453C157.064 43.3453 156.464 41.7453 157.164 40.0453ZM95.0643 70.2452C92.2643 70.2452 89.6643 71.3452 87.3643 73.6452C83.0643 77.8452 80.4643 85.5452 80.8643 92.6452C81.1643 97.8452 82.3643 101.745 84.5643 104.345C85.7643 105.745 87.2643 106.845 88.9644 107.645C94.9644 97.5452 99.2643 87.1452 99.7643 76.0452C99.8643 74.5452 99.7643 72.5452 98.9644 71.5452C98.3644 70.8452 97.2643 70.4452 95.7643 70.3452C95.4644 70.2452 95.2643 70.2452 95.0643 70.2452Z" id="Shape" fill="#1A1A1A" fill-rule="evenodd" stroke="none" />
          </g>
        </g>
        <g id="Group" transform="translate(1500.826 519.0466)">
          <g id="Group">
            <path d="M108.074 192.353C108.574 192.653 109.074 192.753 109.574 192.753C110.774 192.753 111.874 192.053 112.374 190.853C113.174 189.153 112.474 187.153 110.874 186.353C100.874 181.253 95.674 168.853 95.2739 149.453C99.174 148.553 103.474 147.153 106.874 144.253C111.674 140.153 114.374 132.253 110.374 126.453C110.174 126.153 109.974 125.853 109.674 125.653C107.374 123.953 104.474 123.353 101.474 123.853C97.7739 124.553 94.2739 126.753 92.174 129.953C89.3739 134.253 88.7739 139.253 88.674 144.153C79.074 146.053 68.474 147.353 61.474 141.853C58.6741 139.653 56.374 136.253 54.374 131.553C48.274 117.153 48.774 100.953 49.874 82.8533C50.2741 76.7533 50.7741 71.0533 51.774 65.7533C58.6741 64.8533 66.0741 63.5533 72.6741 59.9533C73.874 59.2533 75.0741 58.5533 76.1741 57.7533C82.3742 53.2533 82.3742 45.8533 79.0741 40.9533C75.8742 35.9533 69.0741 33.0533 62.4741 37.0533C58.0741 39.7533 54.1741 43.5533 51.5741 47.7533C49.2742 51.5533 47.6741 55.6533 46.4741 59.8533C33.2742 61.4533 17.5741 61.7533 10.4741 51.5533C6.17407 45.2532 6.37415 36.6533 7.0741 27.6533C7.67407 19.3533 9.27405 9.45325 16.274 6.45325C17.9741 5.75323 18.7742 3.75323 18.0741 2.05322C17.374 0.35321 15.374 -0.446777 13.6741 0.253235C1.974 5.1532 0.774048 21.0532 0.374023 27.0532C-0.32605 37.3532 -0.625977 47.1533 4.974 55.2532C13.574 67.7532 30.374 68.1533 44.974 66.6533C44.074 72.1533 43.6741 77.5532 43.374 82.4532C42.1741 101.353 41.774 118.353 48.374 134.153C50.7741 139.953 53.7741 144.153 57.474 147.053C66.374 154.053 78.074 153.053 88.874 150.953C89.474 172.253 95.974 186.153 108.074 192.353ZM65.774 42.8534C66.874 42.2534 67.874 41.9534 68.774 41.9534C70.874 41.9534 72.474 43.2534 73.4741 44.7534C74.874 46.9534 75.374 50.2534 72.1741 52.5533C71.2742 53.1534 70.3741 53.7534 69.4741 54.2534C64.6741 56.8534 59.274 58.0533 53.6741 58.9534C54.5741 56.2534 55.6741 53.7534 57.1741 51.3534C59.274 47.9534 62.274 44.9534 65.774 42.8534ZM103.574 130.453C103.274 130.453 102.974 130.453 102.674 130.553C100.774 130.853 98.8739 132.153 97.8739 133.753C96.2739 136.253 95.674 139.353 95.4739 142.753C98.1738 142.053 100.674 140.953 102.674 139.353C105.074 137.353 106.574 133.553 105.274 130.953C104.774 130.553 104.174 130.453 103.574 130.453Z" id="Shape" fill="#1A1A1A" fill-rule="evenodd" stroke="none" />
          </g>
        </g>
        <g id="Group" transform="translate(1507.263 820.7949)">
          <g id="Group">
            <path d="M33.0374 213.505L33.8374 213.505C40.3374 213.505 47.0374 209.505 50.8374 203.105C54.4374 197.305 55.7373 190.705 56.5374 184.405C60.1373 156.205 55.8374 127.105 44.4374 101.105C44.8374 100.905 45.2373 100.705 45.5374 100.505C52.8374 96.0051 56.2373 87.605 58.5374 80.0051C66.2373 55.105 69.3373 29.205 67.6373 3.10504C67.5374 1.30505 65.9374 -0.0949097 64.1373 0.00506592C62.3374 0.105042 60.9374 1.70508 61.0374 3.50507C62.6373 28.8051 59.7373 53.905 52.2373 78.105C50.1373 84.905 47.5374 91.605 42.1373 94.905C42.0372 95.005 41.9373 95.005 41.8373 95.105C40.6373 92.805 39.4373 90.505 38.2373 88.305C34.5372 81.705 29.7373 74.5049 21.8373 71.405C17.0374 69.505 11.2373 70.005 6.7373 72.605C3.03735 74.705 0.737305 78.005 0.137329 81.805C-0.862671 88.405 3.43738 97.105 18.4374 101.505C23.8374 103.105 31.2374 104.805 38.2374 103.405C49.3375 128.405 53.5375 156.405 50.0375 183.605C49.3375 189.105 48.3375 194.905 45.3375 199.605C42.4375 204.305 37.7375 207.105 33.3375 206.905C30.6375 206.805 27.9375 205.305 26.0375 202.805C23.9375 200.105 23.0375 196.705 23.6375 193.805C24.8375 187.705 31.5375 183.105 37.9375 183.805C39.7374 184.105 41.4375 182.705 41.6375 180.905C41.8374 179.105 40.5375 177.405 38.7374 177.205C28.8374 176.005 18.9375 183.105 17.1375 192.505C16.2374 197.305 17.6375 202.605 20.8374 206.805C23.9374 210.805 28.4374 213.305 33.0374 213.505ZM10.1373 78.1051C11.7373 77.2051 13.7373 76.7051 15.7373 76.7051C17.0374 76.7051 18.3374 76.9051 19.4373 77.5051C25.3373 79.8052 29.3373 85.8052 32.4373 91.4052C33.5372 93.2051 34.5372 95.1051 35.4373 97.0051C31.4373 97.4052 26.4373 96.8052 20.4373 95.0051C14.9373 93.3051 5.93726 88.9051 6.83728 82.6051C7.13733 80.3051 8.83728 78.9051 10.1373 78.1051Z" id="Shape" fill="#1A1A1A" fill-rule="evenodd" stroke="none" />
          </g>
        </g>
        <g id="Group" transform="translate(0 194.7)">
          <g id="Group">
            <path d="M0 17L16 57L75 27L59 0L0 17Z" id="Polygon" fill="#1A1A1A" stroke="none" />
          </g>
        </g>
        <g id="Group" transform="translate(1015.7 778.0437)">
          <g id="Group" transform="translate(3 3.056274)">
            <path d="M0 34L24 58L60 24L39 0L0 34Z" id="Polygon" fill="#FFFFFF" stroke="none" />
          </g>
          <g id="Group">
            <path d="M24.9 63.1563C25.5 63.7563 26.2 64.0563 27 64.0563C27.7999 64.0563 28.5 63.8563 29 63.2562L65 29.2562C66.2 28.0562 66.2999 26.2562 65.2 25.0562L44.2 1.05621C43.1 -0.243774 41.2 -0.34375 40 0.756226L1 34.7562C0.400024 35.3563 0 36.1563 0 36.9562C0 37.7562 0.300049 38.5563 0.900024 39.1563L24.9 63.1563ZM27.1 56.9563L7.40002 37.2563L41.8 7.35632L58.9 26.9563L27.1 56.9563Z" id="Shape" fill="#1A1A1A" fill-rule="evenodd" stroke="none" />
          </g>
        </g>
        <g id="Group" transform="translate(65.39313 446.5313)">
          <g id="Group" transform="translate(3.006866 2.968689)">
            <path d="M0 32.4L18.9 36.4L27 8.79999L2 0L0 32.4Z" id="Polygon" fill="#FFFFFF" stroke="none" />
          </g>
          <g id="Group">
            <path d="M21.3069 42.2687C21.5069 42.3687 21.7068 42.3687 21.9069 42.3687C23.2068 42.3687 24.4069 41.5687 24.8069 40.3688L32.9069 12.6688C33.3069 11.0687 32.5069 9.46875 31.0069 8.96875L6.00687 0.168762C5.10684 -0.131226 4.10684 -0.03125 3.30685 0.46875C2.60687 0.96875 2.10687 1.86871 2.00687 2.76874L0.00686646 35.1688C-0.0931396 36.6688 0.90686 37.9688 2.40686 38.2687L21.3069 42.2687ZM19.8069 35.8687L6.20685 32.9687L7.80685 7.06873L26.3069 13.5687L19.8069 35.8687Z" id="Shape" fill="#1A1A1A" fill-rule="evenodd" stroke="none" />
          </g>
        </g>
        <g id="Group" transform="translate(264.7 379.1)">
          <g id="Group">
            <path d="M15 0L35 17L19 54L0 43L15 0Z" id="Polygon" fill="#1A1A1A" stroke="none" />
          </g>
        </g>
        <path d="M105 131L67 49L48.7999 58.6L23 0L0 14L41 96L59.2 84.6L89 140L105 131Z" transform="translate(1073.7 624.1)" id="Polygon" fill="#1A1A1A" stroke="none" />
        <g id="Group" transform="translate(1455.7 117.4)">
          <g id="Group">
            <path d="M33.5 0L49.6 1.8L28.7999 59.4L0 50.7L33.5 0Z" id="Polygon" fill="#1A1A1A" stroke="none" />
          </g>
        </g>
        <g id="Group" transform="translate(1231 0)">
          <g id="Group">
            <path d="M16.3 0L43.2001 11.2L40.8 41.6L0 36.8L16.3 0Z" id="Polygon" fill="#1A1A1A" stroke="none" />
          </g>
        </g>
        <g id="Group" transform="translate(660 578.7)">
          <g id="Group">
            <path d="M0 15L25 0L62 52L36 58L0 15Z" id="Polygon" fill="#1A1A1A" stroke="none" />
          </g>
        </g>
        <path d="M68 58.4L49.2 24L42.7 29.4L19 0L0 24L34 60L40.2999 53.4L51.9 71L68 58.4Z" transform="translate(1552.7 409)" id="Polygon" fill="#1A1A1A" stroke="none" />
      </g>
      <g id="Group" transform="translate(1516.5 565.9132)">
        <g id="Group">
          <g id="Group">
            <path d="M97.4 186.387C97.4 186.387 111.5 105.287 116 75.2868C120.5 45.2868 126 -4.2132 116.5 0.286804C107 4.7868 77 82.2868 77 82.2868L0 81.7868L9.5 168.787C9.5 168.787 47.4 160.187 68 168.787C84.4 175.187 97.4 186.387 97.4 186.387L97.4 186.387Z" id="Shape" fill="#FECE2F" stroke="none" />
          </g>
        </g>
      </g>
      <g id="Group" transform="translate(959.7505 561.9381)">
        <path d="M674.05 0.0618896C675.95 -0.238098 677.85 0.56189 679.05 2.2619C682.05 6.2619 683.85 21.2619 671.649 102.762C665.149 146.162 657.549 188.662 657.049 191.862C657.749 197.962 661.449 232.162 660.649 284.162C661.049 284.962 660.949 285.762 660.649 286.562C660.249 305.162 659.349 325.862 657.549 348.262C653.049 403.062 644.149 457.362 630.949 509.662C614.449 575.062 591.349 637.462 562.149 695.062C530.849 756.962 494.449 812.962 454.149 861.362C415.049 908.262 371.149 949.462 323.449 983.862C277.449 1017.06 226.649 1044.86 172.449 1066.56C120.349 1087.36 63.4494 1103.26 3.4494 1113.56C3.34937 1113.76 3.24939 1113.76 3.04938 1113.76C1.64935 1113.76 0.349365 1112.76 0.0493774 1111.26C-0.25061 1109.66 0.849426 1108.06 2.4494 1107.76C62.0494 1097.56 118.449 1081.86 170.249 1061.16C220.649 1041.06 267.949 1015.66 311.149 985.462C306.75 952.062 326.149 902.862 363.949 858.762C409.449 805.862 466.349 778.162 499.75 790.262C520.25 759.662 539.25 727.062 556.75 692.462C585.75 635.262 608.65 573.262 625.05 508.362C638.15 456.462 647.05 402.462 651.45 347.962C653.25 325.462 654.25 304.762 654.55 286.262C638.95 272.362 623.55 264.862 610.05 261.062L610.15 261.162C568.35 257.662 551.15 290.762 545.45 305.862C539.75 330.662 532.55 358.762 523.45 390.162C515.849 416.262 503.55 440.262 486.65 462.162C484.849 472.862 483.05 494.162 487.65 528.662C489.415 542.027 492.007 555.775 494.495 568.973C501.875 608.112 508.345 642.427 489.65 647.662C461.647 655.492 454.508 604.354 451.154 580.323C450.567 576.12 450.096 572.746 449.65 570.662C447.484 560.556 436.982 561.392 426.042 562.263C421.822 562.599 417.543 562.94 413.65 562.662C402.45 561.862 400.849 542.462 400.65 534.762C354.25 561.462 305.15 576.962 271.95 587.562C265.65 589.562 259.65 591.462 254.55 593.162C193.15 613.662 149.95 669.562 149.45 670.162C148.95 670.962 148.05 671.362 147.15 671.362C146.549 671.362 145.849 671.162 145.349 670.762C144.05 669.762 143.75 667.862 144.75 666.562C145.15 665.962 189.55 608.562 252.65 587.562C257.849 585.862 263.849 583.962 270.15 581.962C305.45 570.762 358.65 553.862 407.15 524.062C464.65 488.662 501.849 443.162 517.65 388.562C557.55 251.162 561.05 175.562 561.05 174.762L561.05 174.462L553.65 87.062L553.65 86.962C553.55 86.062 553.85 85.262 554.45 84.562C555.05 83.962 555.85 83.562 556.75 83.562L631.15 86.1619C633.35 80.1619 639.65 62.9619 646.85 45.7619C663.15 6.66187 669.75 0.761902 674.05 0.0618896ZM596.95 167.262C618.75 167.362 637.65 173.662 652.15 185.762C654.449 172.862 660.449 137.862 665.75 102.162C677.349 24.4619 675.649 9.16187 674.449 6.16187C672.649 7.36188 666.449 13.8619 652.049 48.5619C643.349 69.4619 636.049 90.2619 635.949 90.4619C635.449 91.8619 634.05 92.6619 632.75 92.4619L561.15 105.962L566.65 171.062C571.95 169.662 582.349 167.362 595.15 167.262C595.192 167.253 595.233 167.245 595.274 167.237C595.718 167.146 596.092 167.07 596.55 167.162C596.65 167.162 596.85 167.262 596.95 167.262ZM566.949 177.162C570.849 176.062 580.549 173.762 592.649 173.262L581.349 251.562C569.949 251.962 561.149 254.262 555.949 255.962C564.25 211.662 566.449 184.862 566.949 177.162ZM598.65 173.262L587.349 251.562C597.449 251.862 610.05 253.862 623.75 259.562L628.25 178.662C618.15 174.862 607.95 173.462 598.65 173.262ZM629.65 262.262L634.15 181.162C640.05 183.962 645.849 187.762 651.15 192.762C651.849 198.862 655.25 230.462 654.75 278.562C646.25 271.462 637.75 266.162 629.65 262.262Z" id="Shape" fill="#1A1A1A" fill-rule="evenodd" stroke="none" />
      </g>
    </g>
    <g id="taxi-9" transform="translate(416.1194 624.4415)">
      <g id="Layer_2">
        <g id="Layer_3">
          <g id="Group">
            <g id="Group" transform="translate(457.4641 4.513245)">
              <path d="M0 44.5547C0 44.5547 30.964 -4.38972 36.8143 0.3192C42.8073 5.02812 31.392 61.3926 31.392 61.3926C31.392 61.3926 24.8283 53.6871 0 44.5547L0 44.5547Z" id="Shape" fill="#FECE2F" stroke="none" />
            </g>
            <g id="Group" transform="translate(257.7775 46.39017)">
              <path d="M398.887 416.062C398.887 416.062 367.494 527.363 276.17 539.492C184.846 551.621 147.032 516.661 129.195 475.28L173.43 453.162L148.459 289.064L101.37 245.542C101.37 245.542 -2.79628 212.009 0.0575905 205.588C2.91147 199.167 7.90575 112.837 7.90575 112.837L33.5906 51.4787C33.5906 51.4787 115.64 -2.74501 170.577 0.108867C225.514 2.96274 256.906 39.3497 269.749 67.175C282.591 95.0003 296.147 128.533 291.153 179.19C286.159 229.846 269.749 238.408 269.749 238.408L321.832 414.635C321.832 414.635 382.477 412.494 398.887 416.062L398.887 416.062Z" id="Shape" fill="#FECE2F" stroke="none" />
            </g>
            <path d="M1218.4 29.1825C1204.84 -10.4866 1097.82 -2.49558 1010.49 11.203C889.06 30.1814 733.095 71.2772 571.423 126.928C409.75 182.579 261.634 246.078 154.186 305.867C14.2028 383.777 -6.20245 426.3 1.36031 448.133C8.78042 469.965 44.4539 477.385 89.5452 477.385C126.503 477.385 169.882 472.391 209.265 466.112C330.698 447.134 486.663 406.038 648.335 350.387C810.007 294.736 958.123 231.237 1065.57 171.448C1205.55 93.5375 1225.96 51.0147 1218.4 29.1825L1218.4 29.1825Z" transform="translate(267.89 965.375)" id="Shape" fill="#1A1A1A" stroke="none" />
            <g id="Group" transform="translate(377.8604 79.5629)">
              <path d="M0 21.2849C-0.000411987 9.52845 21.7908 -0.00108719 48.6722 0C75.5534 0.00109482 97.3456 9.53238 97.346 21.2888C97.3465 33.0452 75.5553 42.5746 48.6739 42.5736C21.7924 42.5726 0.000511169 33.0412 0 21.2849Z" transform="matrix(0.4689 -0.8832 0.8832 0.4689 -3.051758E-05 85.97601)" id="Ellipse" fill="#FFFFFF" stroke="none" />
            </g>
            <path d="M11.3119 36.6128C25.5811 9.78607 45.9862 -5.19695 58.9712 1.65241C71.9563 8.50177 70.9574 33.9016 56.6882 60.7284C44.8447 83.2742 28.435 97.4011 15.8781 97.4011C13.4523 97.4011 11.1692 96.8303 9.02882 95.6887C2.32224 92.1214 -0.817017 83.7023 0.18185 71.8586C1.03797 61.1564 5.03339 48.7419 11.3119 36.6128ZM8.74337 72.5721C8.17261 80.563 9.74224 86.4135 13.1669 88.2686C20.3015 92.1214 37.282 79.4214 49.2681 56.8756C51.5512 52.5947 53.4062 48.3139 54.9759 44.1756C45.4154 53.8789 35.7123 58.3025 29.1485 54.8778C23.7261 52.1666 21.5857 44.6038 22.4419 34.7578C21.3004 36.6128 20.1588 38.6106 19.0173 40.751C13.1669 51.7386 9.45684 63.1542 8.74337 72.5721Z" transform="translate(385.7926 83.65924)" id="Shape" fill="#1A1A1A" fill-rule="evenodd" stroke="none" />
            <g id="Group" transform="translate(473.1533 135.6644)">
              <path d="M0 21.9914C-3.05176e-05 9.84595 19.3741 5.14984e-05 43.2732 0C67.1722 -5.14984e-05 86.5464 9.84573 86.5464 21.9912C86.5465 34.1367 67.1725 43.9826 43.2733 43.9825C19.3742 43.9827 2.28882e-05 34.1369 0 21.9914Z" transform="matrix(0.05387903 -0.9985 0.9985 0.05387903 1.737976 90.11017)" id="Ellipse" fill="#1A1A1A" stroke="none" />
              <path d="M23.8368 95.6241L24.693 95.6241C31.9704 95.6241 38.8196 90.6298 44.0992 81.4972C49.0935 72.9355 52.09 61.5199 52.8035 49.2481C53.517 36.9763 51.6619 25.1326 47.6666 16.1428C43.3858 6.15417 36.6792 0.446358 29.1165 0.0182898C14.4191 -0.695186 1.57673 19.5676 0.1498 46.3942C-0.563665 58.6661 1.29137 70.5098 5.28676 79.4996C9.56755 89.4882 16.2741 95.196 23.8368 95.6241ZM8.56868 46.965C9.85296 24.1338 19.6988 8.72275 28.1176 8.72275L28.5457 8.72275C32.6837 8.8655 36.8218 12.8609 39.8184 19.7103C43.243 27.5585 44.8127 37.8326 44.2419 48.8202C43.6711 59.8077 40.96 69.939 36.6792 77.3592C33.1119 83.4951 28.6884 87.0624 24.693 87.0624L24.2649 87.0624C20.1268 86.9197 15.9887 82.9243 12.9922 76.0749C9.56755 68.2267 7.99792 57.9526 8.56868 46.965Z" id="Shape" fill="#1A1A1A" fill-rule="evenodd" stroke="none" />
            </g>
            <g id="Group" transform="translate(599.5686 630.9174)">
              <path d="M4.29924 716.238C3.30037 716.238 2.15883 715.809 1.30266 715.096C-0.409688 713.526 -0.409688 710.815 1.15996 709.103C129.727 575.256 195.937 475.513 228.9 415.581C270.424 339.81 272.992 301.854 267.712 295.29C266.571 293.72 265.001 293.149 263.004 293.007L262.861 293.007C241.742 293.007 189.516 353.652 151.417 398.03C105.327 451.683 89.6304 468.521 80.6407 462.813C74.6475 458.96 72.3645 449.685 105.898 373.629C161.691 247.487 177.245 153.88 180.384 97.5158C183.809 36.8707 174.248 5.90617 174.105 5.62067C173.392 3.3376 174.676 0.911696 176.817 0.198225C179.1 -0.515246 181.525 0.769037 182.239 2.90945C182.667 4.19373 192.37 35.7291 188.803 97.9437C185.521 154.879 169.824 249.628 113.46 376.911C88.3462 433.703 84.9215 450.113 85.2069 454.822C94.054 450.969 121.879 418.577 144.568 392.322C188.089 341.665 237.461 284.302 262.576 284.302C262.718 284.302 262.718 284.302 262.861 284.302C267.427 284.445 271.28 286.3 274.134 289.725C285.835 304.422 270.567 356.506 236.035 419.576C202.93 480.079 136.291 580.393 7.01059 714.953C6.58236 715.81 5.44082 716.238 4.29924 716.238L4.29924 716.238Z" id="Shape" fill="#FECE2F" stroke="none" />
            </g>
            <g id="Group" transform="translate(81.59006 1106.303)">
              <path d="M15.5711 291.222C8.72192 291.222 5.44002 281.947 3.01427 272.814C-3.40684 248.271 0.445823 195.331 14.4296 115.565C24.7033 56.49 37.1175 3.69312 37.2602 3.26514C37.8309 0.982068 40.114 -0.444874 42.3971 0.125937C44.6801 0.696749 46.107 2.97982 45.5363 5.2629C45.1082 7.40331 -3.26414 214.595 11.2904 270.817C13.288 278.38 14.8576 281.234 15.7138 282.375C17.4261 280.52 22.1349 272.957 28.4133 241.85C32.4087 222.158 34.9771 203.18 34.9771 202.894C35.2625 200.611 37.4029 198.899 39.8286 199.184C42.1117 199.47 43.824 201.61 43.5386 204.036C43.5386 204.179 40.6848 225.155 36.404 245.845C28.1279 285.229 21.8495 290.937 16.1419 291.365C15.9992 291.222 15.8565 291.222 15.5711 291.222L15.5711 291.222Z" id="Shape" fill="#FECE2F" stroke="none" />
            </g>
            <path d="M344.269 775.722C320.295 712.652 372.206 958.605 314.269 919.221C189.403 834.461 335.03 862.426 314.766 853.722C314.481 853.579 354.555 744.865 354.269 744.722C353.841 744.437 309.086 876.561 274.266 860.722C202.343 827.902 346.549 803.938 343.267 805.222C341.697 805.935 333.053 1087.16 332.482 1088.73C329.627 1096.15 302.791 840.238 325.766 854.222C333.473 858.931 304.346 800.727 309.769 804.722L324.769 795.222C325.054 795.365 327.697 831.509 327.268 832.222C326.841 833.078 329.054 798.222 328.769 798.222C317.496 794.655 346.248 838.431 326.269 833.722C292.02 825.588 293.81 894.241 291.098 899.663C289.671 902.66 349.606 932.197 351.033 935.336C352.46 938.476 306.631 824.582 310.769 827.722C298.639 825.439 324.761 907.653 319.766 910.222C316.912 911.791 283.678 976.575 283.25 978.144C280.111 989.702 224.171 854.287 270.407 876.119C233.019 867.272 219.178 1097.29 216.181 1108.71C215.752 1109.85 277.984 868.581 279.268 870.722C284.834 879.711 279.014 848.446 310.266 856.722C299.278 858.577 239.869 1134.68 231.164 1138.67C224.172 1141.96 275.687 1012.39 273.974 1018.1C271.549 1026.8 277.399 931.483 277.542 931.769C278.256 933.053 379.573 851.147 380.999 851.147C381.142 851.147 380.857 1002.69 380.999 1002.4L302.766 824.722C302.909 824.722 265.27 935.336 265.413 935.336C283.108 938.333 310.791 1047.21 311.79 1047.35C320.209 1050.78 245.264 788.332 308.766 821.722C371.556 854.684 292.297 811.921 318.269 860.722C332.254 887.12 317.25 868.311 302.266 883.722C286.711 899.703 493.271 565.723 493.271 565.723C493.271 565.723 548.247 499.793 528.771 474.723C517.947 463.242 555.747 460.167 515.933 456.314C481.684 452.889 458.566 455.03 449.861 456.171L399.058 284.226C411.188 266.104 418.466 248.267 420.749 231.001C425.173 197.611 420.178 158.656 407.477 126.835C399.343 106.858 385.358 82.3147 361.812 64.6208C362.811 59.7692 364.952 49.7807 366.522 39.0787C370.66 11.5388 367.663 4.83224 364.381 1.83571C362.811 0.408776 360.67 -0.304691 358.387 0.123371C354.535 0.69418 348.255 4.11877 334.413 24.9521C328.562 33.6563 323.71 42.0753 321.712 45.3572C292.316 38.3652 255.641 43.7876 215.113 61.4815C181.434 76.0363 157.318 93.5876 156.319 94.301C156.176 94.4437 156.033 94.5864 155.748 94.7291C151.752 95.0145 147.614 95.728 143.474 96.7268C112.793 103.862 78.687 138.108 61.1342 157.942C34.8767 187.337 13.0431 220.727 5.47974 242.845C-1.65556 263.393 -1.79814 279.945 4.90896 292.074C10.4745 302.063 20.3208 308.627 34.3058 311.909C44.1523 314.192 64.8444 318.901 69.9818 328.176C71.4088 330.744 71.5516 333.598 70.4097 337.023C69.2682 340.305 67.2703 344.585 65.1298 349.152C58.2801 363.849 49.8606 382.257 56.7102 396.669C60.4206 404.659 68.5546 410.082 80.5422 413.078C84.1098 413.934 87.6773 414.363 91.1022 414.363C114.22 414.363 134.912 396.526 150.468 382.97C159.03 375.407 169.876 366.132 172.444 368.986C176.44 373.41 177.154 379.688 177.724 385.824C178.866 396.526 180.293 409.796 202.412 408.227C227.385 406.372 262.348 377.69 275.048 366.56L293.6 496.554C283.468 500.121 294.509 489.69 252.268 523.223C167.074 590.717 401.868 952.018 360.769 1024.22C296.41 1138.38 318.476 679.195 313.767 842.722C310.912 945.604 194.355 828.075 214.763 946.225C272.096 901.034 316.263 851.582 316.263 851.725C316.263 852.439 309.981 883.651 310.266 884.222C315.832 916.47 284.986 821.12 292.264 854.225C292.264 854.653 296.123 884.648 296.265 885.219C296.408 885.647 241.637 844.552 254.766 883.222C282.165 963.558 295.841 882.218 299.266 883.217C301.264 883.788 299.196 859.138 300.766 857.711C302.907 855.713 301.546 886.668 296.266 848.711C295.838 845.001 317.837 869.779 317.266 866.212C321.119 872.919 305.557 852.508 310.266 860.214C337.95 905.304 286.269 866.507 289.266 867.221C289.694 867.364 318.195 852.722 318.766 852.722C320.193 852.722 295.839 821.578 297.266 820.722C304.258 815.87 313.682 861.178 302.266 825.219C299.412 816.372 293.478 892.995 291.766 885.717C296.475 892.139 306.058 838.945 311.766 848.22C335.455 886.319 295.85 882.858 307.266 876.721C314.259 873.012 297.327 922.125 287.766 899.721C281.059 883.74 292.615 853.205 284.766 838.222C310.31 867.046 297.063 873.222 307.766 873.222C309.336 873.222 288.339 854.435 289.766 853.722C290.908 853.151 316.195 902.289 316.766 899.721C318.051 894.299 313.879 945.809 284.766 897.722C289.903 899.576 300.632 888.009 308.766 889.722C311.906 890.435 301.198 864.222 303.766 864.222C316.752 864.222 302.125 853.359 303.266 848.222C303.694 846.51 304.693 871.72 303.266 870.722L273.766 907.215C273.623 907.072 303.909 909.716 303.766 909.716C296.203 898.443 327.979 870.29 326.267 867.722C324.554 856.734 314.222 930.97 339.767 836.222C361.6 755.458 143.332 1210.59 212.258 1153.66C218.538 1185.05 259.219 761.845 281.766 869.722C282.194 871.719 290.768 834.722 292.766 834.722C293.052 834.722 289.48 863.865 289.766 863.722C292.049 863.151 293.194 830.505 292.766 828.222C281.207 773.142 321.254 891.875 310.266 838.222C323.538 834.512 309.779 885.229 321.766 828.722C327.332 802.181 260.101 887.687 305.766 857.722C344.296 832.465 302.688 924.204 296.266 909.222C325.806 864.416 220.564 953.75 230.268 916.221C230.839 913.938 266.551 862.292 264.268 861.722C261.842 861.151 279.839 889.439 279.268 891.722C261.145 961.499 358.816 1033.08 228.812 1129.54C145.759 1191.33 331.812 785.326 307.266 876.222C293.995 925.308 345.126 812.991 347.267 861.222C309.165 878.487 340.75 877.936 325.767 878.222C305.645 761.499 232.769 999.319 235.766 897.722C240.332 740.759 -40.1856 911.792 19.3221 800.919C55.7117 810.051 105.23 779.8 136.625 726.861C161.884 684.196 289.97 829.901 278.269 799.222C296.82 779.673 365.935 817.775 386.769 801.222C400.041 790.663 241.37 534.082 251.93 527.518C255.07 534.653 263.061 549.921 278.616 564.048C294.742 578.745 321.57 594.441 363.097 594.441C371.373 594.441 380.221 593.87 389.925 592.444C446.722 584.167 481.113 550.92 499.95 524.521C516.789 500.692 526.488 480.501 528.771 473.223C532.053 473.937 322.844 831.509 326.269 832.222C374.074 843.209 257.547 764.584 319.766 831.222C351.019 864.755 273.589 639.472 309.266 857.222C311.977 873.632 320.128 821.669 322.269 838.222C321.841 838.935 323.124 830.866 323.266 831.722C323.409 832.578 298.196 838.151 298.766 838.722C314.178 957.3 330.039 790.161 317.766 861.222C317.338 863.647 336.484 870.794 338.768 871.222C339.053 871.222 314.981 848.722 315.267 848.722C317.408 848.722 296.338 874.362 296.766 872.221C309.038 800.732 353.035 932.085 337.766 813.222C354.034 810.654 245.476 902.693 305.269 877.722C347.224 860.17 266.158 888.55 296.268 863.722C334.085 832.615 294.43 884.389 311.269 843.722C344.804 762.815 317.309 839.779 288.768 764.722M359.068 8.68506C361.493 13.8221 359.353 35.5122 354.073 59.3428C347.082 54.9192 339.376 51.0663 330.815 48.0696C330.672 48.0696 330.387 47.927 330.244 47.927C341.66 27.9493 354.216 10.9683 359.068 8.68506L359.068 8.68506ZM492.772 519.387C466.802 555.917 431.699 577.607 388.463 583.885C345.655 590.164 310.695 581.459 284.725 557.915C269.314 543.931 261.751 528.662 259.325 522.812C281.157 509.827 295.284 504.975 298.851 503.834C298.851 503.834 298.851 503.834 298.851 503.834C299.279 503.691 299.422 503.691 299.565 503.548C300.135 503.406 300.564 503.12 300.992 502.835C300.992 502.835 301.134 502.692 301.134 502.692C301.134 502.692 301.277 502.549 301.277 502.549C302.419 501.551 302.989 499.838 302.561 498.269C302.561 498.126 302.419 498.126 302.419 497.983L282.156 356.003C283.868 347.726 286.151 327.892 279.017 296.784C273.594 272.954 264.034 261.824 257.042 256.687C250.763 252.121 242.345 251.693 235.353 255.546C206.1 271.813 194.97 264.964 192.259 262.538C186.123 256.83 183.412 250.266 184.125 242.846C184.982 233.714 191.26 226.151 196.54 223.012C202.248 219.73 209.953 221.157 215.375 223.012C219.228 224.296 223.366 224.011 227.076 222.156C230.644 220.301 233.355 217.161 234.639 213.308C239.919 197.184 238.349 170.5 231.072 151.379C227.504 141.819 218.943 123.554 203.246 110.283C193.401 101.864 182.413 96.87 170.427 95.1578C196.112 78.7479 270.598 36.2251 327.818 56.2023C368.058 70.329 388.891 104.147 399.307 130.118C411.436 160.654 416.145 197.898 412.007 230.004C404.873 284.37 343.514 332.173 336.522 337.31C336.522 337.31 336.522 337.31 336.522 337.31C335.095 338.023 334.239 339.307 334.096 340.877C334.096 341.02 334.096 341.162 334.096 341.305C334.096 341.305 334.096 341.305 334.096 341.448C334.096 342.732 334.81 344.016 335.952 344.73L425.42 403.662L442.686 462.167C443.257 464.165 444.969 465.306 446.824 465.306C447.253 465.306 447.681 465.306 448.109 465.164C448.251 465.164 448.251 465.164 448.394 465.021C453.959 464.593 480.786 462.88 518.171 469.444C515.745 477.15 508.183 497.698 492.772 519.387L492.772 519.387Z" transform="translate(132.7846 0)" id="Shape" fill="#1A1A1A" stroke="none" />
            <path d="M530.049 630.005C491.95 570.072 705.013 743.27 547.05 660.507C389.087 577.743 569.55 658.008 569.55 658.008L567.55 654.508C567.55 654.508 595.372 472.636 688.551 524.007C781.73 575.377 667.818 514.198 651.551 557.007C635.426 599.816 595.539 549.103 527.047 514C458.411 478.611 726.636 3.42475 679.547 0C679.547 0 612.935 23.1687 514.047 46C517.827 -21.8353 409.806 101.26 386.975 63.4458C386.975 63.4458 267.111 140.787 180.495 285.338C93.8797 429.889 3.89999 503.499 0.047242 691C-3.80551 878.359 229.267 573.814 233.547 598.501C233.547 598.501 165.532 697.808 214.048 654.001C214.048 654.001 194.594 694.743 235.548 593.001C276.501 491.259 288.943 734.401 334.605 699.155L347.876 688.168C347.876 688.168 278.711 572.112 296.548 671.001C317.667 669.145 373.149 706.353 398.548 702.5C519.554 683.522 384.303 730.509 545.549 675C572.375 665.868 360.292 597.846 386.547 588C393.825 560.888 427.541 825.209 421.549 755.003L389.547 448.5C389.547 448.5 348.723 775.667 439.049 730.005C529.375 684.342 481.217 776.853 503.049 706.504C524.881 636.155 500.15 703.437 462.049 643.505L530.049 630.005Z" transform="translate(0 458.2251)" id="Shape" fill="#FECE2F" stroke="none" />
            <g id="Group" transform="translate(1228.423 536.6697)">
              <path d="M4.29744 206.462C3.44131 206.462 2.5851 206.176 1.87163 205.748C-0.126111 204.464 -0.554174 201.753 0.730102 199.755C58.949 114.709 34.5485 6.40435 34.4057 5.26281C33.8349 2.97974 35.2618 0.696575 37.545 0.12585C39.828 -0.444962 42.1112 0.981981 42.6819 3.26514C42.9673 4.40668 49.2458 31.804 48.1042 70.4741C47.1054 106.148 39.2572 158.516 7.72202 204.464C7.00865 205.748 5.72437 206.462 4.29744 206.462L4.29744 206.462Z" id="Shape" fill="#FECE2F" stroke="none" />
            </g>
            <g id="Group" transform="translate(247.1811 114.9529)">
              <path d="M4.23247 27.1514C3.09094 27.1514 1.9494 26.7233 1.09327 25.7244C-0.47635 24.012 -0.333649 21.3009 1.37864 19.7312C20.2139 2.46503 39.62 -0.388877 52.6049 0.0391925C66.7313 0.61001 76.4344 5.31895 76.8624 5.46161C79.0028 6.46049 79.859 9.029 78.8601 11.1694C77.8613 13.3099 75.2928 14.166 73.1525 13.1672L73.1525 13.1672C71.7255 12.4537 38.9065 -2.95738 7.22898 26.0098C6.37285 26.866 5.37401 27.1514 4.23247 27.1514L4.23247 27.1514Z" id="Shape" fill="#FECE2F" stroke="none" />
            </g>
          </g>
        </g>
      </g>
    </g>
  </g>
</svg>